<svg width="19" height="19" viewBox="0 0 19 19" fill="none" xmlns="http://www.w3.org/2000/svg">
<path d="M16.625 1.5625H2.375C2.06006 1.5625 1.75801 1.68761 1.53531 1.91031C1.31261 2.13301 1.1875 2.43506 1.1875 2.75V12.25C1.1875 12.5649 1.31261 12.867 1.53531 13.0897C1.75801 13.3124 2.06006 13.4375 2.375 13.4375H16.625C16.9399 13.4375 17.242 13.3124 17.4647 13.0897C17.6874 12.867 17.8125 12.5649 17.8125 12.25V2.75C17.8125 2.43506 17.6874 2.13301 17.4647 1.91031C17.242 1.68761 16.9399 1.5625 16.625 1.5625ZM15.3187 2.75L9.5 6.77562L3.68125 2.75H15.3187ZM2.375 12.25V3.29031L9.16156 7.98687C9.26095 8.05583 9.37903 8.09277 9.5 8.09277C9.62097 8.09277 9.73905 8.05583 9.83844 7.98687L16.625 3.29031V12.25H2.375Z" fill="black"/>
</svg>
