<svg width="334" height="23" viewBox="0 0 334 23" fill="none" xmlns="http://www.w3.org/2000/svg">
<path fill-rule="evenodd" clip-rule="evenodd" d="M119.052 2.45559C168.131 0.729468 217.262 -0.175582 266.395 0.0283552C276.267 0.0693337 286.104 0.203183 295.933 0.33694C307.715 0.497254 319.486 0.657435 331.299 0.657435C332.162 0.657435 332.765 0.655592 333.126 0.653994C333.307 0.653195 333.428 0.652457 333.49 0.652041L333.506 0.652028L333.525 0.651923L333.533 0.651769L333.535 0.651757L333.536 0.651738L333.537 0.651733L333.538 0.651725L333.543 0.651676L333.547 0.651658L333.563 0.651708C334.514 1.37176 333.625 2.17678 333.577 2.17874L333.567 2.17891L333.564 2.17893L333.562 2.17896L333.558 2.17899L333.557 2.17899L333.556 2.17902L333.544 2.17908L333.529 2.17927C333.332 2.18116 332.245 2.19233 330.416 2.22947C307.841 2.68789 285.276 3.67016 262.714 4.75378C277.837 4.70795 292.947 4.70159 308.036 4.70159C318.8 4.70159 324.209 4.71414 325.237 4.73663C325.301 4.73805 325.362 4.73975 325.409 4.74211C325.425 4.7429 325.472 4.74522 325.524 4.75147C325.563 4.75674 325.7 4.78561 325.796 4.81671C326.217 5.11915 326.18 5.94239 325.782 6.20477C325.693 6.23278 325.565 6.25942 325.527 6.26453C325.506 6.26696 325.474 6.27009 325.458 6.27134C325.428 6.27356 325.398 6.275 325.375 6.276C325.326 6.2781 325.264 6.27994 325.192 6.28166C324.903 6.28856 324.358 6.29584 323.58 6.30353C322.02 6.31896 319.492 6.33634 316.125 6.3553C302.654 6.43114 275.713 6.53225 243.386 6.63335C236.696 6.65427 229.775 6.6752 222.696 6.6959C161.079 9.60097 99.4497 11.8714 37.7912 13.9237C32.5849 14.3577 27.3823 14.8162 22.1839 15.3006C22.0267 15.3152 21.8519 15.3325 21.6625 15.3519C25.6913 15.3711 29.7218 15.3289 33.763 15.2867C36.9684 15.2531 40.1805 15.2195 43.4039 15.2164C47.2548 15.2127 51.1057 15.2107 54.9565 15.2087C92.1394 15.1893 129.316 15.17 166.421 13.5998C175.346 13.2221 184.273 12.8701 193.2 12.5248C196.512 12.3372 199.815 12.1582 203.101 11.98C203.636 11.951 204.171 11.922 204.705 11.893C205.605 11.8441 213.863 11.5704 219.235 11.4123C220.58 11.3727 221.75 11.3402 222.582 11.3202C222.997 11.3102 223.332 11.3032 223.564 11.3001C223.678 11.2985 223.775 11.2978 223.847 11.2984C223.879 11.2986 223.923 11.2992 223.966 11.3015L223.967 11.3015C223.982 11.3023 224.035 11.3051 224.099 11.3146C224.113 11.3168 224.224 11.3321 224.35 11.3815C224.43 11.4164 224.626 11.5436 224.727 11.6451C224.841 11.833 224.86 12.2445 224.765 12.4378C224.675 12.5437 224.495 12.681 224.42 12.7207C224.374 12.7417 224.293 12.7718 224.26 12.7822C224.199 12.8005 224.148 12.8099 224.129 12.8133C224.112 12.8165 224.095 12.8191 224.081 12.8212C224.058 12.8244 224.04 12.8264 224.03 12.8275C224.01 12.8298 223.99 12.8317 223.969 12.8335C223.949 12.8352 223.929 12.8368 223.911 12.8382C223.832 12.844 223.722 12.8506 223.584 12.8581C223.305 12.8732 222.884 12.8933 222.302 12.919C221.136 12.9705 219.314 13.0451 216.677 13.148C211.938 13.333 207.201 13.5151 202.464 13.6972C199.417 13.8142 196.372 13.9313 193.326 14.0491C171.171 15.3045 148.681 16.9362 127.291 21.2429C131.662 20.9757 136.027 20.5315 140.408 20.0857C143.247 19.7969 146.093 19.5074 148.95 19.2649C149.48 19.22 149.955 19.5235 150.012 19.9429C150.069 20.3622 149.685 20.7386 149.156 20.7835C146.386 21.0186 143.587 21.3032 140.771 21.5895C134.654 22.2115 128.457 22.8416 122.302 22.9894C121.402 23.0109 120.749 23.0021 120.357 22.9406C120.256 22.9247 120.103 22.8955 119.951 22.833C119.829 22.7829 119.459 22.6077 119.387 22.2204C119.316 21.839 119.599 21.589 119.689 21.5171C119.805 21.4245 119.932 21.3632 120.011 21.3279C120.313 21.1928 120.797 21.0656 121.248 20.9562C121.733 20.8389 122.307 20.7135 122.861 20.5924L122.867 20.5912C133.042 18.3681 143.483 16.7863 154.021 15.5976C121.017 16.7018 87.9687 16.7189 54.9624 16.736C51.1097 16.738 47.2577 16.74 43.4063 16.7437C40.233 16.7468 37.047 16.7801 33.8543 16.8134C27.126 16.8837 20.3678 16.9543 13.6357 16.7431C13.4412 16.737 13.2579 16.7259 13.1018 16.7047C13.0254 16.6942 12.9248 16.6774 12.8204 16.6471C12.7476 16.6259 12.517 16.5564 12.3366 16.3736C12.2306 16.2662 12.1388 16.1153 12.1259 15.9304C12.1133 15.7497 12.1805 15.6014 12.2522 15.4998C12.377 15.3229 12.5554 15.2281 12.6172 15.1963C12.7696 15.1179 12.9437 15.066 13.0629 15.0332C13.4641 14.9231 14.1347 14.7996 14.9088 14.6761C10.2739 14.8267 5.63872 14.9765 1.0034 15.1255C0.471279 15.1426 0.0224026 14.8148 0.000808068 14.3934C-0.0207866 13.9719 0.393079 13.6165 0.925201 13.5994C13.1683 13.2059 25.4098 12.8071 37.6498 12.3997C68.9486 9.79148 100.379 8.06616 131.863 6.92515C99.3466 6.99327 69.6404 7.03777 49.4194 7.03777C47.9626 7.03777 46.8616 7.02903 46.0868 7.01215C45.7003 7.00372 45.3866 6.99311 45.1468 6.97994C44.944 6.9688 44.6981 6.95202 44.5146 6.91009C44.4697 6.89984 44.3472 6.87087 44.2178 6.80418C44.1331 6.7605 43.6741 6.50077 43.7845 6.01588C43.8303 5.81516 43.9621 5.68187 44.0457 5.61353C44.1309 5.54388 44.215 5.50107 44.2642 5.47837C44.3618 5.4333 44.4518 5.40879 44.4963 5.39741C44.6654 5.35415 44.8928 5.32642 45.0925 5.30523C45.5401 5.25773 46.2432 5.20591 47.1508 5.1502C50.7939 4.92655 58.0667 4.62072 66.774 4.28999C78.9894 3.82601 94.0638 3.31174 105.986 2.90499C111.07 2.73157 115.581 2.57769 119.052 2.45559ZM78.6819 10.9971C111.749 8.99924 144.93 7.83741 178.137 7.16226C144.992 8.57354 111.842 9.83022 78.6819 10.9971ZM227.267 4.94909C218.885 5.01977 210.501 5.11047 202.117 5.22682C158.014 5.34778 110.607 5.45286 75.5751 5.49302C85.7702 5.12345 96.8537 4.74533 106.062 4.43119C111.148 4.25768 115.662 4.10369 119.138 3.98144C168.19 2.25627 217.288 1.3519 266.384 1.55569C275.507 1.59355 284.659 1.71191 293.819 1.83591C277.977 2.46801 262.143 3.24566 246.323 4.0226C240.432 4.31192 234.543 4.60115 228.657 4.88272C228.193 4.90488 227.73 4.927 227.267 4.94909ZM120.958 22.6583C120.958 22.6581 120.959 22.6579 120.959 22.6577C120.953 22.6608 120.952 22.6609 120.958 22.6583ZM13.4229 15.1985C13.4229 15.1985 13.4239 15.1987 13.4259 15.199C13.4238 15.1987 13.4229 15.1985 13.4229 15.1985Z" fill="#AE9B86"/>
</svg>
