<svg width="1405" height="115" viewBox="0 0 1405 115" fill="none" xmlns="http://www.w3.org/2000/svg">
<mask id="path-1-outside-1_131_239" maskUnits="userSpaceOnUse" x="0" y="0" width="1405" height="115" fill="black">
<rect fill="white" width="1405" height="115"/>
<path d="M52.9757 84.5524C52.9757 81.2437 51.643 78.0177 48.9776 74.8744C46.3122 71.7312 43.0916 68.8636 39.3156 66.2718C37.4276 65.0034 35.5396 63.7075 33.6516 62.384C31.7636 61.0606 29.8479 59.7095 27.9043 58.3309C24.0728 55.6288 20.8244 52.4579 18.159 48.8183C15.4936 45.1787 14.1609 41.3186 14.1609 37.2378C14.1609 30.6204 15.8268 24.7198 19.1585 19.5362C22.5458 14.3525 27.0436 10.2718 32.6521 7.29394C38.3161 4.3161 44.5908 2.82718 51.4765 2.82718C54.4195 2.82718 58.14 3.43378 62.6378 4.64697C64.9145 5.25357 66.9136 5.74988 68.635 6.13589C70.3564 6.46677 71.8001 6.68735 72.9662 6.79764C72.5775 9.83063 72.1888 12.8912 71.8001 15.9793C71.4669 19.0123 71.1338 22.0729 70.8006 25.161C70.4674 28.3043 70.2175 30.1792 70.0509 30.7858C69.8844 31.3373 69.6345 31.613 69.3013 31.613C67.691 31.613 66.4138 31.2821 65.4698 30.6204C65.2477 30.5652 65.1366 29.9035 65.1366 28.6352C65.1366 25.161 64.3592 22.0177 62.8044 19.2053C61.2496 16.3929 59.195 14.1595 56.6407 12.5052C54.0863 10.7957 51.3099 9.94092 48.3113 9.94092C41.981 9.94092 36.8723 11.8434 32.9853 15.6484C29.0982 19.4535 27.1547 24.2235 27.1547 29.9586C27.1547 35.804 29.8756 40.8774 35.3175 45.1787C38.4271 47.6051 42.0643 50.2245 46.229 53.0369C50.4492 55.7942 54.1141 58.4687 57.2237 61.0606C59.5004 62.9355 61.7493 65.61 63.9705 69.0842C66.1917 72.5583 67.3023 76.2255 67.3023 80.0857C67.3023 83.5047 66.4693 87.1443 64.8034 91.0044C63.1376 94.8646 60.7498 98.5318 57.6402 102.006C54.5306 105.48 50.4214 108.348 45.3127 110.609C40.204 112.87 34.5956 114 28.4874 114C22.4902 114 13.6611 112.677 2 110.03C2.22212 106.5 2.3887 103.633 2.49976 101.427C2.61082 99.1659 2.66635 97.5667 2.66635 96.6293C2.66635 94.2029 2.61082 91.7765 2.49976 89.3501C2.3887 86.9237 2.33317 85.1039 2.33317 83.8907C2.33317 83.1187 3.38823 82.7326 5.49834 82.7326C6.55339 82.7326 7.60844 83.1738 8.6635 84.0561C8.6635 86.3722 8.91338 88.6883 9.41314 91.0044C9.9129 93.3205 10.8569 95.8021 12.2451 98.449C13.6334 101.096 15.8545 103.219 18.9086 104.818C21.9627 106.418 25.6554 107.217 29.9867 107.217C33.9293 107.217 37.6497 106.307 41.148 104.487C44.6464 102.668 47.4784 100.076 49.644 96.712C51.8652 93.293 52.9757 89.2398 52.9757 84.5524Z"/>
<path d="M88.6254 61.3914L95.1224 28.3043C96.344 22.1832 96.9548 17.1098 96.9548 13.0842C96.9548 12.257 96.3718 11.5126 95.2056 10.8508C94.0951 10.1891 92.7901 9.66519 91.2908 9.27917C89.8471 8.83801 88.6254 8.61743 87.6259 8.61743C87.4038 8.61743 87.2927 8.3417 87.2927 7.79025C87.2927 6.24618 87.737 5.03299 88.6254 4.15066C89.5139 4.20581 91.0132 4.3161 93.1233 4.48154C95.2889 4.64697 97.6212 4.81241 100.12 4.97784C102.619 5.08813 104.784 5.14328 106.617 5.14328C109.282 5.14328 112.697 4.97784 116.862 4.64697C121.027 4.3161 123.498 4.15066 124.275 4.15066V4.64697C124.275 7.29394 123.886 8.61743 123.109 8.61743C122.554 8.61743 121.471 8.83801 119.861 9.27917C118.306 9.66519 116.779 10.1615 115.279 10.7681C113.836 11.3195 113.003 11.871 112.781 12.4225C111.281 15.676 109.838 20.8045 108.449 27.808L101.619 63.7075C100.731 68.45 100.287 73.1374 100.287 77.7696C100.287 86.2619 102.119 92.9069 105.784 97.7046C109.449 102.502 114.891 104.901 122.11 104.901C140.212 104.901 151.595 92.4934 156.26 67.678L163.59 28.3043C164.922 20.5839 165.589 15.6209 165.589 13.4151C165.589 12.5327 164.811 11.7331 163.257 11.0162C161.702 10.2994 159.925 9.72034 157.926 9.27917C155.982 8.83801 154.372 8.61743 153.095 8.61743C152.873 8.61743 152.762 8.28656 152.762 7.62482C152.762 5.91531 153.15 4.75726 153.928 4.15066C154.816 4.20581 156.343 4.3161 158.509 4.48154C160.73 4.64697 163.062 4.81241 165.506 4.97784C168.004 5.08813 170.142 5.14328 171.919 5.14328C172.974 5.14328 174.001 5.14328 175.001 5.14328C176.056 5.08813 177.056 5.03299 178 4.97784C179.943 4.86755 182.025 4.72969 184.247 4.56425C186.468 4.39882 188.3 4.26096 189.744 4.15066C189.744 7.12851 189.355 8.61743 188.578 8.61743C188.023 8.61743 186.801 8.83801 184.913 9.27917C183.025 9.66519 181.165 10.1615 179.332 10.7681C177.555 11.3195 176.473 11.871 176.084 12.4225C175.195 13.4702 173.696 18.8744 171.586 28.6352L164.09 67.3471C161.813 79.0379 158.703 88.2196 154.761 94.8922C150.874 101.51 145.848 106.197 139.684 108.954C133.576 111.656 125.997 113.007 116.945 113.007C107.283 113.007 99.759 110.085 94.3727 104.239C88.9864 98.3939 86.2932 89.9567 86.2932 78.9276C86.2932 74.7366 87.0706 68.8912 88.6254 61.3914Z"/>
<path d="M225.227 4.48154C227.781 4.53668 230.558 4.59183 233.556 4.64697C236.555 4.64697 239.776 4.64697 243.219 4.64697C246.995 4.64697 250.215 4.59183 252.881 4.48154C255.546 4.37125 257.601 4.26096 259.044 4.15066C260.821 4.04037 263.237 3.84737 266.291 3.57164C269.401 3.29591 272.316 3.04776 275.037 2.82718C275.259 2.93747 275.425 3.79222 275.536 5.39143C275.648 6.99065 275.648 7.95569 275.536 8.28656C275.425 8.72772 269.04 16.6135 256.379 31.9439C243.718 47.2191 231.058 62.4392 218.397 77.6041L199.573 100.434C198.684 101.372 198.24 102.309 198.24 103.247C198.24 104.129 198.795 104.57 199.906 104.57H234.889C237.721 104.57 240.609 104.129 243.552 103.247C246.55 102.309 248.827 100.986 250.382 99.2762C250.826 98.7799 251.215 98.3388 251.548 97.9527C251.937 97.5667 252.27 97.2358 252.547 96.9601C253.103 96.4087 253.714 95.5539 254.38 94.3959C254.824 93.6238 255.463 92.3831 256.296 90.6736C257.129 88.9641 257.545 88.0266 257.545 87.8612C257.878 86.9788 259.378 86.5377 262.043 86.5377C263.209 86.5377 263.986 86.8685 264.375 87.5303C262.432 92.2728 260.655 96.7671 259.044 101.013C257.49 105.259 256.101 109.258 254.88 113.007H178.083C177.639 112.235 177.417 111.298 177.417 110.195C177.417 108.375 177.861 106.941 178.749 105.894L256.379 12.4225H236.055C234.945 12.4225 233.862 12.4225 232.807 12.4225C231.752 12.4225 230.724 12.45 229.725 12.5052C228.17 12.5603 226.726 12.5879 225.394 12.5879C224.061 12.5879 223.228 12.5879 222.895 12.5879C218.175 12.643 214.371 13.3048 211.484 14.5731C208.652 15.7863 206.208 17.8543 204.154 20.777C202.155 23.6997 199.961 27.7528 197.574 32.9365C197.24 33.3776 196.685 33.5982 195.908 33.5982C193.909 33.5982 192.409 33.1019 191.41 32.1093C192.132 30.1792 193.27 26.7878 194.825 21.935C196.38 17.0822 198.351 10.7681 200.739 2.99261C201.239 3.15805 202.599 3.32349 204.82 3.48892C207.041 3.65436 209.568 3.81979 212.4 3.98523C215.232 4.15066 217.842 4.28853 220.229 4.39882C222.673 4.45396 224.339 4.48154 225.227 4.48154Z"/>
<path d="M284.699 61.3914L291.196 28.3043C292.417 22.1832 293.028 17.1098 293.028 13.0842C293.028 12.257 292.445 11.5126 291.279 10.8508C290.168 10.1891 288.863 9.66519 287.364 9.27917C285.92 8.83801 284.699 8.61743 283.699 8.61743C283.477 8.61743 283.366 8.3417 283.366 7.79025C283.366 6.24618 283.81 5.03299 284.699 4.15066C285.587 4.20581 287.087 4.3161 289.197 4.48154C291.362 4.64697 293.695 4.81241 296.193 4.97784C298.692 5.08813 300.858 5.14328 302.69 5.14328C305.356 5.14328 308.771 4.97784 312.935 4.64697C317.1 4.3161 319.571 4.15066 320.349 4.15066V4.64697C320.349 7.29394 319.96 8.61743 319.182 8.61743C318.627 8.61743 317.544 8.83801 315.934 9.27917C314.379 9.66519 312.852 10.1615 311.353 10.7681C309.909 11.3195 309.076 11.871 308.854 12.4225C307.355 15.676 305.911 20.8045 304.523 27.808L297.693 63.7075C296.804 68.45 296.36 73.1374 296.36 77.7696C296.36 86.2619 298.192 92.9069 301.857 97.7046C305.522 102.502 310.964 104.901 318.183 104.901C336.285 104.901 347.669 92.4934 352.333 67.678L359.663 28.3043C360.996 20.5839 361.662 15.6209 361.662 13.4151C361.662 12.5327 360.885 11.7331 359.33 11.0162C357.775 10.2994 355.998 9.72034 353.999 9.27917C352.056 8.83801 350.445 8.61743 349.168 8.61743C348.946 8.61743 348.835 8.28656 348.835 7.62482C348.835 5.91531 349.224 4.75726 350.001 4.15066C350.89 4.20581 352.417 4.3161 354.582 4.48154C356.803 4.64697 359.136 4.81241 361.579 4.97784C364.078 5.08813 366.216 5.14328 367.992 5.14328C369.048 5.14328 370.075 5.14328 371.074 5.14328C372.129 5.08813 373.129 5.03299 374.073 4.97784C376.016 4.86755 378.099 4.72969 380.32 4.56425C382.541 4.39882 384.374 4.26096 385.817 4.15066C385.817 7.12851 385.429 8.61743 384.651 8.61743C384.096 8.61743 382.874 8.83801 380.986 9.27917C379.098 9.66519 377.238 10.1615 375.406 10.7681C373.629 11.3195 372.546 11.871 372.157 12.4225C371.269 13.4702 369.769 18.8744 367.659 28.6352L360.163 67.3471C357.886 79.0379 354.777 88.2196 350.834 94.8922C346.947 101.51 341.922 106.197 335.758 108.954C329.65 111.656 322.07 113.007 313.019 113.007C303.357 113.007 295.832 110.085 290.446 104.239C285.06 98.3939 282.367 89.9567 282.367 78.9276C282.367 74.7366 283.144 68.8912 284.699 61.3914Z"/>
<path d="M412.805 27.808L400.977 90.0118C399.755 95.9124 399.144 100.875 399.144 104.901C399.144 105.783 399.894 106.583 401.393 107.3C402.893 108.017 404.364 108.485 405.808 108.706L408.14 109.037C408.362 109.037 408.473 109.258 408.473 109.699C408.473 110.912 408.14 112.18 407.474 113.504C402.365 113.228 398.367 113.035 395.479 112.925C392.592 112.759 390.815 112.677 390.149 112.677C390.038 112.677 388.455 112.759 385.401 112.925C382.347 113.035 377.821 113.228 371.824 113.504C371.602 113.283 371.491 112.842 371.491 112.18C371.491 110.085 371.88 109.037 372.657 109.037C373.545 109.037 374.767 108.871 376.322 108.541C377.932 108.21 379.432 107.769 380.82 107.217C382.208 106.666 383.041 106.059 383.319 105.397C384.929 101.758 386.373 96.4638 387.65 89.5155L399.478 28.3043C400.699 22.4037 401.31 17.3304 401.31 13.0842C401.31 12.257 400.727 11.5126 399.561 10.8508C398.45 10.1891 397.145 9.66519 395.646 9.27917C394.202 8.83801 392.981 8.61743 391.981 8.61743C391.759 8.61743 391.648 8.3417 391.648 7.79025C391.648 6.24618 392.092 5.03299 392.981 4.15066C393.869 4.20581 395.368 4.3161 397.478 4.48154C399.644 4.64697 401.976 4.81241 404.475 4.97784C406.974 5.08813 409.14 5.14328 410.972 5.14328C413.637 5.14328 417.052 4.97784 421.217 4.64697C425.382 4.3161 427.853 4.15066 428.63 4.15066V4.64697C428.63 7.29394 428.242 8.61743 427.464 8.61743C426.909 8.61743 425.826 8.83801 424.216 9.27917C422.661 9.66519 421.134 10.1615 419.635 10.7681C418.191 11.3195 417.358 11.871 417.136 12.4225C415.636 15.676 414.193 20.8045 412.805 27.808ZM406.974 59.0753C410.417 56.9798 414.665 53.7262 419.718 49.3146C424.771 44.903 430.13 39.8848 435.794 34.26C441.513 28.6352 446.955 23.0103 452.119 17.3855C452.674 16.8341 453.646 15.7863 455.034 14.2422C456.423 12.643 457.117 11.485 457.117 10.7681C457.117 9.77548 456.145 9.05859 454.201 8.61743C452.258 8.17627 450.564 7.95569 449.121 7.95569C448.787 7.95569 448.621 7.62482 448.621 6.96307C448.621 5.97046 448.898 5.03299 449.454 4.15066C450.786 4.26096 452.536 4.39882 454.701 4.56425C456.867 4.72969 458.977 4.86755 461.032 4.97784C463.142 5.08813 464.724 5.14328 465.779 5.14328C468.5 5.14328 471.971 4.97784 476.191 4.64697C480.467 4.3161 482.938 4.15066 483.604 4.15066C483.604 6.68735 483.271 7.95569 482.605 7.95569C474.775 8.89316 468.889 11.3195 464.946 15.2349L424.299 55.6012C423.744 56.1526 423.466 56.8144 423.466 57.5864C423.466 58.4136 423.799 59.2959 424.466 60.2334L458.449 101.096C459.727 102.64 461.531 103.964 463.864 105.066C466.251 106.114 468.611 106.941 470.944 107.548C473.276 108.099 474.942 108.375 475.941 108.375C476.163 108.375 476.274 108.706 476.274 109.368C476.274 110.636 475.997 111.794 475.441 112.842C469.777 113.173 465.613 113.338 462.947 113.338C459.505 113.338 456.201 112.787 453.035 111.684C450.537 110.746 448.538 109.781 447.038 108.789C445.594 107.796 444.456 106.776 443.623 105.728C432.573 91.7765 423.994 80.9129 417.885 73.1374C411.777 65.3619 408.14 60.6745 406.974 59.0753Z"/>
<path d="M519.754 27.808L507.926 90.0118C506.704 95.9124 506.093 100.875 506.093 104.901C506.093 105.783 506.843 106.583 508.342 107.3C509.842 108.017 511.313 108.485 512.757 108.706L515.089 109.037C515.311 109.037 515.422 109.258 515.422 109.699C515.422 110.912 515.089 112.18 514.423 113.504C509.314 113.228 505.316 113.035 502.429 112.925C499.541 112.759 497.764 112.677 497.098 112.677C496.987 112.677 495.404 112.759 492.35 112.925C489.296 113.035 484.77 113.228 478.773 113.504C478.551 113.283 478.44 112.842 478.44 112.18C478.44 110.085 478.829 109.037 479.606 109.037C480.495 109.037 481.716 108.871 483.271 108.541C484.881 108.21 486.381 107.769 487.769 107.217C489.157 106.666 489.99 106.059 490.268 105.397C491.878 101.758 493.322 96.4638 494.599 89.5155L506.427 28.3043C507.648 22.4037 508.259 17.3304 508.259 13.0842C508.259 12.257 507.676 11.5126 506.51 10.8508C505.399 10.1891 504.094 9.66519 502.595 9.27917C501.151 8.83801 499.93 8.61743 498.93 8.61743C498.708 8.61743 498.597 8.3417 498.597 7.79025C498.597 6.24618 499.041 5.03299 499.93 4.15066C500.818 4.20581 502.317 4.3161 504.428 4.48154C506.593 4.64697 508.925 4.81241 511.424 4.97784C513.923 5.08813 516.089 5.14328 517.921 5.14328C520.587 5.14328 524.002 4.97784 528.166 4.64697C532.331 4.3161 534.802 4.15066 535.579 4.15066V4.64697C535.579 7.29394 535.191 8.61743 534.413 8.61743C533.858 8.61743 532.775 8.83801 531.165 9.27917C529.61 9.66519 528.083 10.1615 526.584 10.7681C525.14 11.3195 524.307 11.871 524.085 12.4225C522.586 15.676 521.142 20.8045 519.754 27.808Z"/>
<path d="M635.199 73.4682C635.199 72.8065 634.505 72.3929 633.116 72.2275C631.728 72.062 629.646 71.9518 626.869 71.8966C624.148 71.8415 621.316 71.8139 618.373 71.8139C617.207 71.8139 615.319 71.8966 612.709 72.062C610.155 72.1723 606.879 72.3653 602.881 72.6411C602.548 72.6411 601.048 74.8469 598.383 79.2585C596.606 82.1812 594.801 85.352 592.969 88.7711C591.192 92.1901 589.693 95.3058 588.471 98.1182C587.305 100.875 586.722 102.806 586.722 103.908C586.722 105.011 587.305 105.949 588.471 106.721C589.693 107.493 591.025 108.072 592.469 108.458C593.968 108.844 595.107 109.037 595.884 109.037C596.106 109.037 596.217 109.368 596.217 110.03C596.217 111.298 595.94 112.456 595.384 113.504C590.22 113.228 586.305 113.035 583.64 112.925C581.03 112.759 579.67 112.677 579.558 112.677C578.559 112.677 576.921 112.732 574.644 112.842C572.367 112.952 570.119 113.063 567.897 113.173C565.676 113.338 564.121 113.449 563.233 113.504C563.011 113.283 562.9 112.842 562.9 112.18C562.9 110.085 563.288 109.037 564.066 109.037C565.288 109.037 566.981 108.706 569.147 108.044C571.312 107.383 572.839 106.555 573.728 105.563C576.171 102.861 579.558 97.677 583.89 90.0118L629.868 7.95569C631.534 4.97784 633.699 3.48892 636.365 3.48892C636.865 3.48892 637.309 3.59921 637.697 3.81979L651.524 91.1699C652.635 98.1182 653.301 102.089 653.523 103.081C653.745 104.184 654.495 105.204 655.772 106.142C657.049 107.024 658.41 107.741 659.854 108.292C661.353 108.789 662.463 109.037 663.185 109.037C663.407 109.037 663.519 109.313 663.519 109.864C663.519 111.243 663.241 112.456 662.686 113.504C657.521 113.228 653.496 113.035 650.608 112.925C647.72 112.759 645.971 112.677 645.361 112.677C644.305 112.677 643.278 112.704 642.279 112.759C641.335 112.759 640.391 112.787 639.447 112.842C637.725 112.952 635.698 113.063 633.366 113.173C631.09 113.283 629.146 113.393 627.536 113.504C627.425 113.393 627.369 113.063 627.369 112.511C627.369 110.195 627.758 109.037 628.535 109.037C629.646 109.037 631.201 108.706 633.2 108.044C635.199 107.383 636.476 106.611 637.031 105.728C637.809 104.019 638.197 101.427 638.197 97.9527C638.197 96.0778 637.198 87.9163 635.199 73.4682ZM620.539 63.7075C623.093 63.7075 625.398 63.68 627.452 63.6248C629.562 63.5697 631.423 63.487 633.033 63.3767C633.477 63.3767 633.699 63.1561 633.699 62.7149C633.699 61.998 633.338 59.4062 632.617 54.9394C632.172 51.8513 631.645 48.3496 631.034 44.4343C630.423 40.519 629.84 36.8518 629.285 33.4328C628.785 30.0138 628.424 27.5323 628.202 25.9882C614.542 50.5278 607.712 62.9355 607.712 63.2112C607.712 63.4318 607.767 63.5421 607.878 63.5421C609.156 63.5972 610.849 63.6524 612.959 63.7075C615.069 63.7075 617.596 63.7075 620.539 63.7075Z"/>
<path d="M728.154 4.15066C731.264 4.15066 734.429 4.50911 737.65 5.226C740.871 5.94289 744.064 7.10094 747.229 8.70015C750.394 10.2994 752.976 12.643 754.975 15.7312C756.974 18.8193 757.974 22.4589 757.974 26.6499C757.974 30.0689 757.224 33.4328 755.725 36.7415C754.225 40.0502 752.448 42.8351 750.394 45.096C748.173 47.4673 745.785 49.6179 743.231 51.548C740.51 53.5884 738.205 55.1324 736.317 56.1802C734.429 57.228 732.708 58.1379 731.153 58.9099C730.153 59.2408 729.876 59.9025 730.32 60.8951C731.764 65.7479 733.485 70.7661 735.484 75.9498C737.483 81.1334 739.538 85.9311 741.648 90.3427C743.758 94.6992 745.646 98.1733 747.312 100.765C748.256 102.309 749.339 103.688 750.56 104.901C751.782 106.059 752.976 106.831 754.142 107.217C754.475 107.327 754.753 107.438 754.975 107.548C755.253 107.603 755.475 107.686 755.641 107.796C755.919 107.906 756.447 108.017 757.224 108.127C757.724 108.182 758.501 108.21 759.556 108.21C760.667 108.21 761.361 108.21 761.639 108.21C762.416 110.305 762.471 111.849 761.805 112.842C759.195 113.393 755.975 113.669 752.143 113.669C744.758 113.669 738.705 110.085 733.985 102.916C731.597 99.3314 729.043 94.2856 726.322 87.7784C723.601 81.2713 720.714 73.3028 717.659 63.873C717.104 62.3289 714.661 61.5569 710.33 61.5569C706.887 61.5569 704.61 61.6947 703.5 61.9705C702.556 62.191 701.945 62.9906 701.667 64.3693L696.836 90.0118C695.614 95.9124 695.004 100.875 695.004 104.901C695.004 105.783 695.753 106.583 697.252 107.3C698.752 108.017 700.223 108.485 701.667 108.706L703.999 109.037C704.221 109.037 704.332 109.258 704.332 109.699C704.332 110.912 703.999 112.18 703.333 113.504C698.169 113.228 694.143 113.035 691.255 112.925C688.368 112.759 686.619 112.677 686.008 112.677C685.841 112.677 684.231 112.759 681.177 112.925C678.123 113.035 673.625 113.228 667.683 113.504C667.461 113.283 667.35 112.842 667.35 112.18C667.35 110.085 667.739 109.037 668.516 109.037C669.405 109.037 670.626 108.871 672.181 108.541C673.791 108.21 675.291 107.769 676.679 107.217C678.067 106.666 678.9 106.059 679.178 105.397C680.344 102.585 681.788 97.291 683.509 89.5155L697.169 21.0251C697.724 18.2678 698.002 15.5106 698.002 12.7533C698.002 11.4298 696.892 10.4097 694.67 9.69276C692.449 8.97587 690.617 8.61743 689.173 8.61743C688.951 8.61743 688.84 8.23141 688.84 7.45938C688.84 5.86017 689.229 4.75726 690.006 4.15066C694.781 4.48154 700.556 4.64697 707.331 4.64697C710.441 4.64697 713.911 4.56425 717.743 4.39882C721.574 4.23338 725.045 4.15066 728.154 4.15066ZM725.489 10.2718C719.825 10.2718 716.243 10.4372 714.744 10.7681C713.3 11.099 712.44 11.9813 712.162 13.4151L704.166 51.9616V52.2925C704.166 53.9468 706.776 54.774 711.995 54.774C717.049 54.774 721.935 53.809 726.655 51.8789C731.32 49.9488 735.345 46.6952 738.733 42.1182C742.12 37.5411 743.814 32.1093 743.814 25.8227C743.814 15.4554 737.705 10.2718 725.489 10.2718Z"/>
<path d="M831.605 2.66174C839.213 2.66174 851.04 5.14328 867.088 10.1064C866.089 16.3929 865.311 21.2457 864.756 24.6647C864.201 28.0837 863.868 30.0689 863.757 30.6204C863.423 32.2747 862.091 33.1019 859.758 33.1019C858.87 33.1019 858.259 32.9365 857.926 32.6056C857.926 30.9513 857.87 29.4623 857.759 28.1388C857.648 26.8154 857.093 24.8853 856.094 22.3486C855.094 19.8119 853.734 17.7164 852.012 16.062C850.291 14.4077 847.598 12.9188 843.933 11.5953C840.268 10.2718 835.881 9.61004 830.772 9.61004C825.053 9.61004 819.417 11.2368 813.864 14.4904C808.311 17.744 803.285 22.1832 798.787 27.808C794.29 33.4328 790.68 39.8848 787.959 47.164C785.294 54.4431 783.961 62.1083 783.961 70.1595C783.961 77.2181 785.266 83.5323 787.876 89.1019C790.486 94.6164 794.262 98.9729 799.204 102.171C804.146 105.315 810.115 106.886 817.112 106.886C825.386 106.886 832.383 105.066 838.102 101.427C840.879 99.7725 843.294 97.7873 845.349 95.4712C846.626 94.0374 847.931 92.3831 849.263 90.5081C850.652 88.6332 851.374 87.6957 851.429 87.6957C851.762 87.6957 852.429 88.2747 853.428 89.4328C854.428 90.5908 854.872 91.3905 854.761 91.8316C849.819 101.261 847.042 106.28 846.431 106.886C845.321 108.099 842.961 109.258 839.352 110.36C835.742 111.463 831.522 112.346 826.691 113.007C821.86 113.669 817.057 114 812.281 114C803.507 114 795.844 111.932 789.292 107.796C782.795 103.605 777.742 98.0906 774.133 91.2526C770.579 84.3594 768.802 76.8873 768.802 68.836C768.802 61.5569 770.44 54.002 773.716 46.1713C776.992 38.3407 781.351 31.1994 786.793 24.7474C792.235 18.2954 798.926 13.0015 806.867 8.86558C814.808 4.72969 823.054 2.66174 831.605 2.66174Z"/>
<path d="M921.562 52.6233C936.056 52.6233 943.33 52.1822 943.385 51.2999L947.883 28.3043C949.105 22.4037 949.716 17.3304 949.716 13.0842C949.716 12.257 949.133 11.5126 947.967 10.8508C946.856 10.1891 945.551 9.66519 944.052 9.27917C942.608 8.83801 941.386 8.61743 940.387 8.61743C940.165 8.61743 940.054 8.3417 940.054 7.79025C940.054 6.24618 940.498 5.03299 941.386 4.15066C942.275 4.20581 943.774 4.3161 945.884 4.48154C948.05 4.64697 950.382 4.81241 952.881 4.97784C955.38 5.08813 957.545 5.14328 959.378 5.14328C962.099 5.14328 965.569 4.97784 969.789 4.64697C974.065 4.3161 976.536 4.15066 977.203 4.15066V4.64697C977.203 7.29394 976.814 8.61743 976.036 8.61743C975.481 8.61743 974.426 8.83801 972.871 9.27917C971.317 9.66519 969.817 10.1615 968.373 10.7681C966.93 11.3195 966.097 11.871 965.875 12.4225C964.264 15.9517 962.821 21.0803 961.543 27.808L949.382 90.0118C948.161 95.9124 947.55 100.875 947.55 104.901C947.55 105.783 948.3 106.583 949.799 107.3C951.298 108.017 952.825 108.485 954.38 108.706L956.546 109.037C956.768 109.037 956.879 109.258 956.879 109.699C956.879 110.912 956.546 112.18 955.879 113.504C950.715 113.228 946.689 113.035 943.802 112.925C940.914 112.759 939.165 112.677 938.554 112.677C938.388 112.677 936.777 112.759 933.723 112.925C930.669 113.035 926.171 113.228 920.23 113.504C920.008 113.283 919.897 112.842 919.897 112.18C919.897 110.085 920.285 109.037 921.063 109.037C921.951 109.037 923.173 108.871 924.728 108.541C926.338 108.21 927.837 107.769 929.225 107.217C930.614 106.666 931.447 106.059 931.724 105.397C933.335 101.758 934.778 96.4638 936.056 89.5155L941.386 62.2186V62.0532C941.386 61.5017 940.081 61.1433 937.471 60.9778C934.917 60.8124 928.615 60.7297 918.564 60.7297C902.627 60.7297 894.52 61.3914 894.242 62.7149L888.911 90.0118C887.69 95.9124 887.079 100.875 887.079 104.901C887.079 105.783 887.828 106.583 889.328 107.3C890.827 108.017 892.299 108.485 893.742 108.706L896.075 109.037C896.297 109.037 896.408 109.258 896.408 109.699C896.408 110.912 896.075 112.18 895.408 113.504C890.3 113.228 886.301 113.035 883.414 112.925C880.526 112.759 878.749 112.677 878.083 112.677C877.972 112.677 876.389 112.759 873.335 112.925C870.281 113.035 865.756 113.228 859.758 113.504C859.536 113.283 859.425 112.842 859.425 112.18C859.425 110.085 859.814 109.037 860.591 109.037C861.48 109.037 862.702 108.871 864.256 108.541C865.867 108.21 867.366 107.769 868.754 107.217C870.142 106.666 870.975 106.059 871.253 105.397C872.863 101.758 874.307 96.4638 875.584 89.5155L887.412 28.3043C888.634 22.4037 889.244 17.3304 889.244 13.0842C889.244 12.257 888.661 11.5126 887.495 10.8508C886.385 10.1891 885.08 9.66519 883.58 9.27917C882.137 8.83801 880.915 8.61743 879.916 8.61743C879.693 8.61743 879.582 8.3417 879.582 7.79025C879.582 6.24618 880.027 5.03299 880.915 4.15066C881.804 4.20581 883.303 4.3161 885.413 4.48154C887.579 4.64697 889.911 4.81241 892.41 4.97784C894.908 5.08813 897.074 5.14328 898.907 5.14328C901.572 5.14328 904.987 4.97784 909.152 4.64697C913.316 4.3161 915.787 4.15066 916.565 4.15066V4.64697C916.565 7.29394 916.176 8.61743 915.399 8.61743C914.843 8.61743 913.761 8.83801 912.15 9.27917C910.595 9.66519 909.068 10.1615 907.569 10.7681C906.125 11.3195 905.292 11.871 905.07 12.4225C903.238 16.6686 901.794 21.7971 900.739 27.808L896.574 51.1344V51.2999C896.574 51.8513 898.046 52.2098 900.989 52.3752C903.932 52.5406 910.79 52.6233 921.562 52.6233Z"/>
<path d="M1005.19 27.808L993.362 90.0118C992.14 95.9124 991.529 100.875 991.529 104.901C991.529 105.783 992.279 106.583 993.778 107.3C995.277 108.017 996.749 108.485 998.193 108.706L1000.52 109.037C1000.75 109.037 1000.86 109.258 1000.86 109.699C1000.86 110.912 1000.52 112.18 999.858 113.504C994.75 113.228 990.752 113.035 987.864 112.925C984.977 112.759 983.2 112.677 982.533 112.677C982.422 112.677 980.84 112.759 977.786 112.925C974.732 113.035 970.206 113.228 964.209 113.504C963.987 113.283 963.876 112.842 963.876 112.18C963.876 110.085 964.264 109.037 965.042 109.037C965.93 109.037 967.152 108.871 968.707 108.541C970.317 108.21 971.816 107.769 973.204 107.217C974.593 106.666 975.426 106.059 975.703 105.397C977.314 101.758 978.757 96.4638 980.035 89.5155L991.862 28.3043C993.084 22.4037 993.695 17.3304 993.695 13.0842C993.695 12.257 993.112 11.5126 991.946 10.8508C990.835 10.1891 989.53 9.66519 988.031 9.27917C986.587 8.83801 985.365 8.61743 984.366 8.61743C984.144 8.61743 984.033 8.3417 984.033 7.79025C984.033 6.24618 984.477 5.03299 985.365 4.15066C986.254 4.20581 987.753 4.3161 989.863 4.48154C992.029 4.64697 994.361 4.81241 996.86 4.97784C999.359 5.08813 1001.52 5.14328 1003.36 5.14328C1006.02 5.14328 1009.44 4.97784 1013.6 4.64697C1017.77 4.3161 1020.24 4.15066 1021.02 4.15066V4.64697C1021.02 7.29394 1020.63 8.61743 1019.85 8.61743C1019.29 8.61743 1018.21 8.83801 1016.6 9.27917C1015.05 9.66519 1013.52 10.1615 1012.02 10.7681C1010.58 11.3195 1009.74 11.871 1009.52 12.4225C1008.02 15.676 1006.58 20.8045 1005.19 27.808Z"/>
<path d="M1051.17 89.5155L1062.66 30.7858C1064.11 23.0103 1064.83 17.6613 1064.83 14.7386C1064.83 14.0217 1064.69 13.4426 1064.41 13.0015C1064.02 12.5052 1062.22 12.0916 1059 11.7607C1055.78 11.4298 1052.22 11.2644 1048.34 11.2644C1044.45 11.2644 1041.34 11.6504 1039.01 12.4225C1036.73 13.1393 1034.79 14.5455 1033.18 16.6411C1031.62 18.7366 1029.9 21.8523 1028.01 25.9882C1027.79 26.5396 1027.23 26.8154 1026.35 26.8154C1024.9 26.8154 1023.79 26.4293 1023.01 25.6573L1030.34 2C1034.51 3.2132 1038.01 3.81979 1040.84 3.81979C1044.06 3.81979 1047.67 3.90251 1051.67 4.06795C1055.67 4.23338 1059.66 4.39882 1063.66 4.56425C1067.72 4.72969 1071.32 4.81241 1074.49 4.81241C1077.77 4.81241 1081.43 4.72969 1085.48 4.56425C1089.59 4.39882 1093.67 4.23338 1097.73 4.06795C1101.84 3.90251 1105.53 3.81979 1108.81 3.81979C1111.31 3.81979 1114.97 3.2132 1119.8 2L1118.14 25.6573C1117.08 26.4293 1115.8 26.8154 1114.3 26.8154C1113.3 26.8154 1112.8 26.5396 1112.8 25.9882C1112.8 20.0325 1111.72 16.0896 1109.56 14.1595C1107.39 12.2294 1103.7 11.2644 1098.48 11.2644C1087.48 11.2644 1081.6 12.0916 1080.82 13.7459C1080.04 15.4003 1079.27 17.6061 1078.49 20.3634C1077.71 23.1206 1076.93 26.4293 1076.16 30.2895L1064.49 90.0118C1063.27 95.9124 1062.66 100.875 1062.66 104.901C1062.66 105.783 1063.41 106.583 1064.91 107.3C1066.41 108.017 1067.88 108.485 1069.33 108.706L1071.66 109.037C1071.88 109.037 1071.99 109.258 1071.99 109.699C1071.99 110.912 1071.66 112.18 1070.99 113.504C1065.88 113.228 1061.88 113.035 1059 112.925C1056.11 112.759 1054.33 112.677 1053.67 112.677C1053.56 112.677 1051.97 112.759 1048.92 112.925C1045.86 113.035 1041.34 113.228 1035.34 113.504C1035.12 113.283 1035.01 112.842 1035.01 112.18C1035.01 110.085 1035.4 109.037 1036.17 109.037C1037.06 109.037 1038.28 108.871 1039.84 108.541C1041.45 108.21 1042.95 107.769 1044.34 107.217C1045.73 106.666 1046.56 106.059 1046.84 105.397C1048.45 101.758 1049.89 96.4638 1051.17 89.5155Z"/>
<path d="M1147.29 4.48154C1149.57 4.48154 1152.65 4.42639 1156.53 4.3161C1160.48 4.20581 1165.22 4.04037 1170.78 3.81979C1176.33 3.59921 1181.22 3.43378 1185.44 3.32349C1189.66 3.2132 1193.21 3.15805 1196.1 3.15805C1196.04 3.93008 1195.99 4.86755 1195.93 5.97046C1195.93 7.01822 1195.93 8.23141 1195.93 9.61004C1195.93 10.5475 1195.93 11.7056 1195.93 13.0842C1195.99 14.4077 1196.04 15.9517 1196.1 17.7164C1196.15 19.481 1196.18 21.0251 1196.18 22.3486C1196.24 23.6721 1196.27 24.775 1196.27 25.6573C1195.71 26.2088 1194.71 26.4845 1193.27 26.4845C1191.93 26.4845 1191.27 26.0985 1191.27 25.3264C1190.93 19.1502 1189.49 15.2349 1186.94 13.5805C1184.38 11.9261 1180.33 11.099 1174.78 11.099H1165.78C1157.95 11.099 1153.73 11.8159 1153.12 13.2496C1151.9 16.5583 1150.9 20.2531 1150.12 24.3338L1144.79 53.2851C1144.79 53.9468 1145.46 54.3328 1146.79 54.4431C1148.12 54.5534 1149.51 54.6086 1150.95 54.6086H1158.45C1162.11 54.6086 1165 54.5259 1167.11 54.3604C1169.22 54.195 1170.89 53.7538 1172.11 53.0369C1173.33 52.32 1174.39 51.162 1175.28 49.5628C1176.22 47.9636 1177.33 45.7302 1178.61 42.8626C1178.94 42.0906 1179.72 41.7046 1180.94 41.7046C1182.27 41.7046 1183.1 41.9803 1183.44 42.5318L1177.27 74.2954C1176.55 74.7366 1175.77 74.9572 1174.94 74.9572C1173.44 74.9572 1172.67 74.516 1172.61 73.6337C1172.55 70.8213 1172.33 68.5879 1171.94 66.9335C1171.72 65.8858 1171.53 65.1413 1171.36 64.7002C1171.19 64.259 1170.78 63.7627 1170.11 63.2112C1169.06 62.3289 1163.67 61.8877 1153.95 61.8877C1146.68 61.8877 1142.9 62.384 1142.62 63.3767L1137.79 87.8612C1136.57 93.5963 1135.96 98.3939 1135.96 102.254C1135.96 103.908 1136.4 104.901 1137.29 105.232C1138.24 105.563 1141.18 105.728 1146.12 105.728H1153.62C1163.34 105.728 1170.06 104.791 1173.78 102.916C1175.55 102.033 1177.63 100.076 1180.02 97.0428C1182.41 94.0099 1184.66 90.3978 1186.77 86.2068C1187.1 85.5451 1187.94 85.2142 1189.27 85.2142C1191.21 85.2142 1192.38 85.5451 1192.77 86.2068C1184.99 100.6 1180.44 109.754 1179.11 113.669C1173.28 113.669 1164.14 113.504 1151.7 113.173C1139.32 112.842 1130.91 112.677 1126.46 112.677L1107.97 113.504C1107.86 113.393 1107.81 112.952 1107.81 112.18C1107.81 110.085 1108.08 109.037 1108.64 109.037C1109.47 109.037 1110.72 108.844 1112.39 108.458C1114.05 108.017 1115.64 107.493 1117.14 106.886C1118.64 106.225 1119.52 105.563 1119.8 104.901C1121.36 101.758 1122.8 96.6293 1124.13 89.5155L1136.13 27.9734C1137.57 19.9222 1138.18 14.7937 1137.96 12.5879C1137.9 11.9813 1137.27 11.3747 1136.04 10.7681C1134.82 10.1615 1133.49 9.66519 1132.05 9.27917C1130.6 8.83801 1129.46 8.61743 1128.63 8.61743C1128.41 8.61743 1128.3 8.39685 1128.3 7.95569C1128.3 6.19104 1128.69 4.9227 1129.46 4.15066C1132.02 4.26096 1134.77 4.34367 1137.71 4.39882C1140.71 4.45396 1143.9 4.48154 1147.29 4.48154Z"/>
<path d="M1263.07 2.66174C1270.67 2.66174 1282.5 5.14328 1298.55 10.1064C1297.55 16.3929 1296.77 21.2457 1296.22 24.6647C1295.66 28.0837 1295.33 30.0689 1295.22 30.6204C1294.88 32.2747 1293.55 33.1019 1291.22 33.1019C1290.33 33.1019 1289.72 32.9365 1289.39 32.6056C1289.39 30.9513 1289.33 29.4623 1289.22 28.1388C1289.11 26.8154 1288.55 24.8853 1287.55 22.3486C1286.56 19.8119 1285.19 17.7164 1283.47 16.062C1281.75 14.4077 1279.06 12.9188 1275.39 11.5953C1271.73 10.2718 1267.34 9.61004 1262.23 9.61004C1256.51 9.61004 1250.88 11.2368 1245.32 14.4904C1239.77 17.744 1234.75 22.1832 1230.25 27.808C1225.75 33.4328 1222.14 39.8848 1219.42 47.164C1216.76 54.4431 1215.42 62.1083 1215.42 70.1595C1215.42 77.2181 1216.73 83.5323 1219.34 89.1019C1221.95 94.6164 1225.72 98.9729 1230.67 102.171C1235.61 105.315 1241.58 106.886 1248.57 106.886C1256.85 106.886 1263.84 105.066 1269.56 101.427C1272.34 99.7725 1274.76 97.7873 1276.81 95.4712C1278.09 94.0374 1279.39 92.3831 1280.72 90.5081C1282.11 88.6332 1282.83 87.6957 1282.89 87.6957C1283.22 87.6957 1283.89 88.2747 1284.89 89.4328C1285.89 90.5908 1286.33 91.3905 1286.22 91.8316C1281.28 101.261 1278.5 106.28 1277.89 106.886C1276.78 108.099 1274.42 109.258 1270.81 110.36C1267.2 111.463 1262.98 112.346 1258.15 113.007C1253.32 113.669 1248.52 114 1243.74 114C1234.97 114 1227.31 111.932 1220.75 107.796C1214.26 103.605 1209.2 98.0906 1205.59 91.2526C1202.04 84.3594 1200.26 76.8873 1200.26 68.836C1200.26 61.5569 1201.9 54.002 1205.18 46.1713C1208.45 38.3407 1212.81 31.1994 1218.25 24.7474C1223.7 18.2954 1230.39 13.0015 1238.33 8.86558C1246.27 4.72969 1254.52 2.66174 1263.07 2.66174Z"/>
<path d="M1334.37 89.5155L1345.86 30.7858C1347.3 23.0103 1348.03 17.6613 1348.03 14.7386C1348.03 14.0217 1347.89 13.4426 1347.61 13.0015C1347.22 12.5052 1345.42 12.0916 1342.2 11.7607C1338.97 11.4298 1335.42 11.2644 1331.53 11.2644C1327.65 11.2644 1324.54 11.6504 1322.21 12.4225C1319.93 13.1393 1317.98 14.5455 1316.37 16.6411C1314.82 18.7366 1313.1 21.8523 1311.21 25.9882C1310.99 26.5396 1310.43 26.8154 1309.54 26.8154C1308.1 26.8154 1306.99 26.4293 1306.21 25.6573L1313.54 2C1317.71 3.2132 1321.21 3.81979 1324.04 3.81979C1327.26 3.81979 1330.87 3.90251 1334.87 4.06795C1338.86 4.23338 1342.86 4.39882 1346.86 4.56425C1350.91 4.72969 1354.52 4.81241 1357.69 4.81241C1360.96 4.81241 1364.63 4.72969 1368.68 4.56425C1372.79 4.39882 1376.87 4.23338 1380.93 4.06795C1385.04 3.90251 1388.73 3.81979 1392.01 3.81979C1394.5 3.81979 1398.17 3.2132 1403 2L1401.33 25.6573C1400.28 26.4293 1399 26.8154 1397.5 26.8154C1396.5 26.8154 1396 26.5396 1396 25.9882C1396 20.0325 1394.92 16.0896 1392.75 14.1595C1390.59 12.2294 1386.9 11.2644 1381.68 11.2644C1370.68 11.2644 1364.8 12.0916 1364.02 13.7459C1363.24 15.4003 1362.46 17.6061 1361.69 20.3634C1360.91 23.1206 1360.13 26.4293 1359.35 30.2895L1347.69 90.0118C1346.47 95.9124 1345.86 100.875 1345.86 104.901C1345.86 105.783 1346.61 106.583 1348.11 107.3C1349.61 108.017 1351.08 108.485 1352.52 108.706L1354.86 109.037C1355.08 109.037 1355.19 109.258 1355.19 109.699C1355.19 110.912 1354.86 112.18 1354.19 113.504C1349.08 113.228 1345.08 113.035 1342.2 112.925C1339.31 112.759 1337.53 112.677 1336.86 112.677C1336.75 112.677 1335.17 112.759 1332.12 112.925C1329.06 113.035 1324.54 113.228 1318.54 113.504C1318.32 113.283 1318.21 112.842 1318.21 112.18C1318.21 110.085 1318.6 109.037 1319.37 109.037C1320.26 109.037 1321.48 108.871 1323.04 108.541C1324.65 108.21 1326.15 107.769 1327.54 107.217C1328.92 106.666 1329.76 106.059 1330.03 105.397C1331.65 101.758 1333.09 96.4638 1334.37 89.5155Z"/>
</mask>
<path d="M52.9757 84.5524C52.9757 81.2437 51.643 78.0177 48.9776 74.8744C46.3122 71.7312 43.0916 68.8636 39.3156 66.2718C37.4276 65.0034 35.5396 63.7075 33.6516 62.384C31.7636 61.0606 29.8479 59.7095 27.9043 58.3309C24.0728 55.6288 20.8244 52.4579 18.159 48.8183C15.4936 45.1787 14.1609 41.3186 14.1609 37.2378C14.1609 30.6204 15.8268 24.7198 19.1585 19.5362C22.5458 14.3525 27.0436 10.2718 32.6521 7.29394C38.3161 4.3161 44.5908 2.82718 51.4765 2.82718C54.4195 2.82718 58.14 3.43378 62.6378 4.64697C64.9145 5.25357 66.9136 5.74988 68.635 6.13589C70.3564 6.46677 71.8001 6.68735 72.9662 6.79764C72.5775 9.83063 72.1888 12.8912 71.8001 15.9793C71.4669 19.0123 71.1338 22.0729 70.8006 25.161C70.4674 28.3043 70.2175 30.1792 70.0509 30.7858C69.8844 31.3373 69.6345 31.613 69.3013 31.613C67.691 31.613 66.4138 31.2821 65.4698 30.6204C65.2477 30.5652 65.1366 29.9035 65.1366 28.6352C65.1366 25.161 64.3592 22.0177 62.8044 19.2053C61.2496 16.3929 59.195 14.1595 56.6407 12.5052C54.0863 10.7957 51.3099 9.94092 48.3113 9.94092C41.981 9.94092 36.8723 11.8434 32.9853 15.6484C29.0982 19.4535 27.1547 24.2235 27.1547 29.9586C27.1547 35.804 29.8756 40.8774 35.3175 45.1787C38.4271 47.6051 42.0643 50.2245 46.229 53.0369C50.4492 55.7942 54.1141 58.4687 57.2237 61.0606C59.5004 62.9355 61.7493 65.61 63.9705 69.0842C66.1917 72.5583 67.3023 76.2255 67.3023 80.0857C67.3023 83.5047 66.4693 87.1443 64.8034 91.0044C63.1376 94.8646 60.7498 98.5318 57.6402 102.006C54.5306 105.48 50.4214 108.348 45.3127 110.609C40.204 112.87 34.5956 114 28.4874 114C22.4902 114 13.6611 112.677 2 110.03C2.22212 106.5 2.3887 103.633 2.49976 101.427C2.61082 99.1659 2.66635 97.5667 2.66635 96.6293C2.66635 94.2029 2.61082 91.7765 2.49976 89.3501C2.3887 86.9237 2.33317 85.1039 2.33317 83.8907C2.33317 83.1187 3.38823 82.7326 5.49834 82.7326C6.55339 82.7326 7.60844 83.1738 8.6635 84.0561C8.6635 86.3722 8.91338 88.6883 9.41314 91.0044C9.9129 93.3205 10.8569 95.8021 12.2451 98.449C13.6334 101.096 15.8545 103.219 18.9086 104.818C21.9627 106.418 25.6554 107.217 29.9867 107.217C33.9293 107.217 37.6497 106.307 41.148 104.487C44.6464 102.668 47.4784 100.076 49.644 96.712C51.8652 93.293 52.9757 89.2398 52.9757 84.5524Z" stroke="#AC906D" stroke-width="2" mask="url(#path-1-outside-1_131_239)"/>
<path d="M88.6254 61.3914L95.1224 28.3043C96.344 22.1832 96.9548 17.1098 96.9548 13.0842C96.9548 12.257 96.3718 11.5126 95.2056 10.8508C94.0951 10.1891 92.7901 9.66519 91.2908 9.27917C89.8471 8.83801 88.6254 8.61743 87.6259 8.61743C87.4038 8.61743 87.2927 8.3417 87.2927 7.79025C87.2927 6.24618 87.737 5.03299 88.6254 4.15066C89.5139 4.20581 91.0132 4.3161 93.1233 4.48154C95.2889 4.64697 97.6212 4.81241 100.12 4.97784C102.619 5.08813 104.784 5.14328 106.617 5.14328C109.282 5.14328 112.697 4.97784 116.862 4.64697C121.027 4.3161 123.498 4.15066 124.275 4.15066V4.64697C124.275 7.29394 123.886 8.61743 123.109 8.61743C122.554 8.61743 121.471 8.83801 119.861 9.27917C118.306 9.66519 116.779 10.1615 115.279 10.7681C113.836 11.3195 113.003 11.871 112.781 12.4225C111.281 15.676 109.838 20.8045 108.449 27.808L101.619 63.7075C100.731 68.45 100.287 73.1374 100.287 77.7696C100.287 86.2619 102.119 92.9069 105.784 97.7046C109.449 102.502 114.891 104.901 122.11 104.901C140.212 104.901 151.595 92.4934 156.26 67.678L163.59 28.3043C164.922 20.5839 165.589 15.6209 165.589 13.4151C165.589 12.5327 164.811 11.7331 163.257 11.0162C161.702 10.2994 159.925 9.72034 157.926 9.27917C155.982 8.83801 154.372 8.61743 153.095 8.61743C152.873 8.61743 152.762 8.28656 152.762 7.62482C152.762 5.91531 153.15 4.75726 153.928 4.15066C154.816 4.20581 156.343 4.3161 158.509 4.48154C160.73 4.64697 163.062 4.81241 165.506 4.97784C168.004 5.08813 170.142 5.14328 171.919 5.14328C172.974 5.14328 174.001 5.14328 175.001 5.14328C176.056 5.08813 177.056 5.03299 178 4.97784C179.943 4.86755 182.025 4.72969 184.247 4.56425C186.468 4.39882 188.3 4.26096 189.744 4.15066C189.744 7.12851 189.355 8.61743 188.578 8.61743C188.023 8.61743 186.801 8.83801 184.913 9.27917C183.025 9.66519 181.165 10.1615 179.332 10.7681C177.555 11.3195 176.473 11.871 176.084 12.4225C175.195 13.4702 173.696 18.8744 171.586 28.6352L164.09 67.3471C161.813 79.0379 158.703 88.2196 154.761 94.8922C150.874 101.51 145.848 106.197 139.684 108.954C133.576 111.656 125.997 113.007 116.945 113.007C107.283 113.007 99.759 110.085 94.3727 104.239C88.9864 98.3939 86.2932 89.9567 86.2932 78.9276C86.2932 74.7366 87.0706 68.8912 88.6254 61.3914Z" stroke="#AC906D" stroke-width="2" mask="url(#path-1-outside-1_131_239)"/>
<path d="M225.227 4.48154C227.781 4.53668 230.558 4.59183 233.556 4.64697C236.555 4.64697 239.776 4.64697 243.219 4.64697C246.995 4.64697 250.215 4.59183 252.881 4.48154C255.546 4.37125 257.601 4.26096 259.044 4.15066C260.821 4.04037 263.237 3.84737 266.291 3.57164C269.401 3.29591 272.316 3.04776 275.037 2.82718C275.259 2.93747 275.425 3.79222 275.536 5.39143C275.648 6.99065 275.648 7.95569 275.536 8.28656C275.425 8.72772 269.04 16.6135 256.379 31.9439C243.718 47.2191 231.058 62.4392 218.397 77.6041L199.573 100.434C198.684 101.372 198.24 102.309 198.24 103.247C198.24 104.129 198.795 104.57 199.906 104.57H234.889C237.721 104.57 240.609 104.129 243.552 103.247C246.55 102.309 248.827 100.986 250.382 99.2762C250.826 98.7799 251.215 98.3388 251.548 97.9527C251.937 97.5667 252.27 97.2358 252.547 96.9601C253.103 96.4087 253.714 95.5539 254.38 94.3959C254.824 93.6238 255.463 92.3831 256.296 90.6736C257.129 88.9641 257.545 88.0266 257.545 87.8612C257.878 86.9788 259.378 86.5377 262.043 86.5377C263.209 86.5377 263.986 86.8685 264.375 87.5303C262.432 92.2728 260.655 96.7671 259.044 101.013C257.49 105.259 256.101 109.258 254.88 113.007H178.083C177.639 112.235 177.417 111.298 177.417 110.195C177.417 108.375 177.861 106.941 178.749 105.894L256.379 12.4225H236.055C234.945 12.4225 233.862 12.4225 232.807 12.4225C231.752 12.4225 230.724 12.45 229.725 12.5052C228.17 12.5603 226.726 12.5879 225.394 12.5879C224.061 12.5879 223.228 12.5879 222.895 12.5879C218.175 12.643 214.371 13.3048 211.484 14.5731C208.652 15.7863 206.208 17.8543 204.154 20.777C202.155 23.6997 199.961 27.7528 197.574 32.9365C197.24 33.3776 196.685 33.5982 195.908 33.5982C193.909 33.5982 192.409 33.1019 191.41 32.1093C192.132 30.1792 193.27 26.7878 194.825 21.935C196.38 17.0822 198.351 10.7681 200.739 2.99261C201.239 3.15805 202.599 3.32349 204.82 3.48892C207.041 3.65436 209.568 3.81979 212.4 3.98523C215.232 4.15066 217.842 4.28853 220.229 4.39882C222.673 4.45396 224.339 4.48154 225.227 4.48154Z" stroke="#AC906D" stroke-width="2" mask="url(#path-1-outside-1_131_239)"/>
<path d="M284.699 61.3914L291.196 28.3043C292.417 22.1832 293.028 17.1098 293.028 13.0842C293.028 12.257 292.445 11.5126 291.279 10.8508C290.168 10.1891 288.863 9.66519 287.364 9.27917C285.92 8.83801 284.699 8.61743 283.699 8.61743C283.477 8.61743 283.366 8.3417 283.366 7.79025C283.366 6.24618 283.81 5.03299 284.699 4.15066C285.587 4.20581 287.087 4.3161 289.197 4.48154C291.362 4.64697 293.695 4.81241 296.193 4.97784C298.692 5.08813 300.858 5.14328 302.69 5.14328C305.356 5.14328 308.771 4.97784 312.935 4.64697C317.1 4.3161 319.571 4.15066 320.349 4.15066V4.64697C320.349 7.29394 319.96 8.61743 319.182 8.61743C318.627 8.61743 317.544 8.83801 315.934 9.27917C314.379 9.66519 312.852 10.1615 311.353 10.7681C309.909 11.3195 309.076 11.871 308.854 12.4225C307.355 15.676 305.911 20.8045 304.523 27.808L297.693 63.7075C296.804 68.45 296.36 73.1374 296.36 77.7696C296.36 86.2619 298.192 92.9069 301.857 97.7046C305.522 102.502 310.964 104.901 318.183 104.901C336.285 104.901 347.669 92.4934 352.333 67.678L359.663 28.3043C360.996 20.5839 361.662 15.6209 361.662 13.4151C361.662 12.5327 360.885 11.7331 359.33 11.0162C357.775 10.2994 355.998 9.72034 353.999 9.27917C352.056 8.83801 350.445 8.61743 349.168 8.61743C348.946 8.61743 348.835 8.28656 348.835 7.62482C348.835 5.91531 349.224 4.75726 350.001 4.15066C350.89 4.20581 352.417 4.3161 354.582 4.48154C356.803 4.64697 359.136 4.81241 361.579 4.97784C364.078 5.08813 366.216 5.14328 367.992 5.14328C369.048 5.14328 370.075 5.14328 371.074 5.14328C372.129 5.08813 373.129 5.03299 374.073 4.97784C376.016 4.86755 378.099 4.72969 380.32 4.56425C382.541 4.39882 384.374 4.26096 385.817 4.15066C385.817 7.12851 385.429 8.61743 384.651 8.61743C384.096 8.61743 382.874 8.83801 380.986 9.27917C379.098 9.66519 377.238 10.1615 375.406 10.7681C373.629 11.3195 372.546 11.871 372.157 12.4225C371.269 13.4702 369.769 18.8744 367.659 28.6352L360.163 67.3471C357.886 79.0379 354.777 88.2196 350.834 94.8922C346.947 101.51 341.922 106.197 335.758 108.954C329.65 111.656 322.07 113.007 313.019 113.007C303.357 113.007 295.832 110.085 290.446 104.239C285.06 98.3939 282.367 89.9567 282.367 78.9276C282.367 74.7366 283.144 68.8912 284.699 61.3914Z" stroke="#AC906D" stroke-width="2" mask="url(#path-1-outside-1_131_239)"/>
<path d="M412.805 27.808L400.977 90.0118C399.755 95.9124 399.144 100.875 399.144 104.901C399.144 105.783 399.894 106.583 401.393 107.3C402.893 108.017 404.364 108.485 405.808 108.706L408.14 109.037C408.362 109.037 408.473 109.258 408.473 109.699C408.473 110.912 408.14 112.18 407.474 113.504C402.365 113.228 398.367 113.035 395.479 112.925C392.592 112.759 390.815 112.677 390.149 112.677C390.038 112.677 388.455 112.759 385.401 112.925C382.347 113.035 377.821 113.228 371.824 113.504C371.602 113.283 371.491 112.842 371.491 112.18C371.491 110.085 371.88 109.037 372.657 109.037C373.545 109.037 374.767 108.871 376.322 108.541C377.932 108.21 379.432 107.769 380.82 107.217C382.208 106.666 383.041 106.059 383.319 105.397C384.929 101.758 386.373 96.4638 387.65 89.5155L399.478 28.3043C400.699 22.4037 401.31 17.3304 401.31 13.0842C401.31 12.257 400.727 11.5126 399.561 10.8508C398.45 10.1891 397.145 9.66519 395.646 9.27917C394.202 8.83801 392.981 8.61743 391.981 8.61743C391.759 8.61743 391.648 8.3417 391.648 7.79025C391.648 6.24618 392.092 5.03299 392.981 4.15066C393.869 4.20581 395.368 4.3161 397.478 4.48154C399.644 4.64697 401.976 4.81241 404.475 4.97784C406.974 5.08813 409.14 5.14328 410.972 5.14328C413.637 5.14328 417.052 4.97784 421.217 4.64697C425.382 4.3161 427.853 4.15066 428.63 4.15066V4.64697C428.63 7.29394 428.242 8.61743 427.464 8.61743C426.909 8.61743 425.826 8.83801 424.216 9.27917C422.661 9.66519 421.134 10.1615 419.635 10.7681C418.191 11.3195 417.358 11.871 417.136 12.4225C415.636 15.676 414.193 20.8045 412.805 27.808ZM406.974 59.0753C410.417 56.9798 414.665 53.7262 419.718 49.3146C424.771 44.903 430.13 39.8848 435.794 34.26C441.513 28.6352 446.955 23.0103 452.119 17.3855C452.674 16.8341 453.646 15.7863 455.034 14.2422C456.423 12.643 457.117 11.485 457.117 10.7681C457.117 9.77548 456.145 9.05859 454.201 8.61743C452.258 8.17627 450.564 7.95569 449.121 7.95569C448.787 7.95569 448.621 7.62482 448.621 6.96307C448.621 5.97046 448.898 5.03299 449.454 4.15066C450.786 4.26096 452.536 4.39882 454.701 4.56425C456.867 4.72969 458.977 4.86755 461.032 4.97784C463.142 5.08813 464.724 5.14328 465.779 5.14328C468.5 5.14328 471.971 4.97784 476.191 4.64697C480.467 4.3161 482.938 4.15066 483.604 4.15066C483.604 6.68735 483.271 7.95569 482.605 7.95569C474.775 8.89316 468.889 11.3195 464.946 15.2349L424.299 55.6012C423.744 56.1526 423.466 56.8144 423.466 57.5864C423.466 58.4136 423.799 59.2959 424.466 60.2334L458.449 101.096C459.727 102.64 461.531 103.964 463.864 105.066C466.251 106.114 468.611 106.941 470.944 107.548C473.276 108.099 474.942 108.375 475.941 108.375C476.163 108.375 476.274 108.706 476.274 109.368C476.274 110.636 475.997 111.794 475.441 112.842C469.777 113.173 465.613 113.338 462.947 113.338C459.505 113.338 456.201 112.787 453.035 111.684C450.537 110.746 448.538 109.781 447.038 108.789C445.594 107.796 444.456 106.776 443.623 105.728C432.573 91.7765 423.994 80.9129 417.885 73.1374C411.777 65.3619 408.14 60.6745 406.974 59.0753Z" stroke="#AC906D" stroke-width="2" mask="url(#path-1-outside-1_131_239)"/>
<path d="M519.754 27.808L507.926 90.0118C506.704 95.9124 506.093 100.875 506.093 104.901C506.093 105.783 506.843 106.583 508.342 107.3C509.842 108.017 511.313 108.485 512.757 108.706L515.089 109.037C515.311 109.037 515.422 109.258 515.422 109.699C515.422 110.912 515.089 112.18 514.423 113.504C509.314 113.228 505.316 113.035 502.429 112.925C499.541 112.759 497.764 112.677 497.098 112.677C496.987 112.677 495.404 112.759 492.35 112.925C489.296 113.035 484.77 113.228 478.773 113.504C478.551 113.283 478.44 112.842 478.44 112.18C478.44 110.085 478.829 109.037 479.606 109.037C480.495 109.037 481.716 108.871 483.271 108.541C484.881 108.21 486.381 107.769 487.769 107.217C489.157 106.666 489.99 106.059 490.268 105.397C491.878 101.758 493.322 96.4638 494.599 89.5155L506.427 28.3043C507.648 22.4037 508.259 17.3304 508.259 13.0842C508.259 12.257 507.676 11.5126 506.51 10.8508C505.399 10.1891 504.094 9.66519 502.595 9.27917C501.151 8.83801 499.93 8.61743 498.93 8.61743C498.708 8.61743 498.597 8.3417 498.597 7.79025C498.597 6.24618 499.041 5.03299 499.93 4.15066C500.818 4.20581 502.317 4.3161 504.428 4.48154C506.593 4.64697 508.925 4.81241 511.424 4.97784C513.923 5.08813 516.089 5.14328 517.921 5.14328C520.587 5.14328 524.002 4.97784 528.166 4.64697C532.331 4.3161 534.802 4.15066 535.579 4.15066V4.64697C535.579 7.29394 535.191 8.61743 534.413 8.61743C533.858 8.61743 532.775 8.83801 531.165 9.27917C529.61 9.66519 528.083 10.1615 526.584 10.7681C525.14 11.3195 524.307 11.871 524.085 12.4225C522.586 15.676 521.142 20.8045 519.754 27.808Z" stroke="#AC906D" stroke-width="2" mask="url(#path-1-outside-1_131_239)"/>
<path d="M635.199 73.4682C635.199 72.8065 634.505 72.3929 633.116 72.2275C631.728 72.062 629.646 71.9518 626.869 71.8966C624.148 71.8415 621.316 71.8139 618.373 71.8139C617.207 71.8139 615.319 71.8966 612.709 72.062C610.155 72.1723 606.879 72.3653 602.881 72.6411C602.548 72.6411 601.048 74.8469 598.383 79.2585C596.606 82.1812 594.801 85.352 592.969 88.7711C591.192 92.1901 589.693 95.3058 588.471 98.1182C587.305 100.875 586.722 102.806 586.722 103.908C586.722 105.011 587.305 105.949 588.471 106.721C589.693 107.493 591.025 108.072 592.469 108.458C593.968 108.844 595.107 109.037 595.884 109.037C596.106 109.037 596.217 109.368 596.217 110.03C596.217 111.298 595.94 112.456 595.384 113.504C590.22 113.228 586.305 113.035 583.64 112.925C581.03 112.759 579.67 112.677 579.558 112.677C578.559 112.677 576.921 112.732 574.644 112.842C572.367 112.952 570.119 113.063 567.897 113.173C565.676 113.338 564.121 113.449 563.233 113.504C563.011 113.283 562.9 112.842 562.9 112.18C562.9 110.085 563.288 109.037 564.066 109.037C565.288 109.037 566.981 108.706 569.147 108.044C571.312 107.383 572.839 106.555 573.728 105.563C576.171 102.861 579.558 97.677 583.89 90.0118L629.868 7.95569C631.534 4.97784 633.699 3.48892 636.365 3.48892C636.865 3.48892 637.309 3.59921 637.697 3.81979L651.524 91.1699C652.635 98.1182 653.301 102.089 653.523 103.081C653.745 104.184 654.495 105.204 655.772 106.142C657.049 107.024 658.41 107.741 659.854 108.292C661.353 108.789 662.463 109.037 663.185 109.037C663.407 109.037 663.519 109.313 663.519 109.864C663.519 111.243 663.241 112.456 662.686 113.504C657.521 113.228 653.496 113.035 650.608 112.925C647.72 112.759 645.971 112.677 645.361 112.677C644.305 112.677 643.278 112.704 642.279 112.759C641.335 112.759 640.391 112.787 639.447 112.842C637.725 112.952 635.698 113.063 633.366 113.173C631.09 113.283 629.146 113.393 627.536 113.504C627.425 113.393 627.369 113.063 627.369 112.511C627.369 110.195 627.758 109.037 628.535 109.037C629.646 109.037 631.201 108.706 633.2 108.044C635.199 107.383 636.476 106.611 637.031 105.728C637.809 104.019 638.197 101.427 638.197 97.9527C638.197 96.0778 637.198 87.9163 635.199 73.4682ZM620.539 63.7075C623.093 63.7075 625.398 63.68 627.452 63.6248C629.562 63.5697 631.423 63.487 633.033 63.3767C633.477 63.3767 633.699 63.1561 633.699 62.7149C633.699 61.998 633.338 59.4062 632.617 54.9394C632.172 51.8513 631.645 48.3496 631.034 44.4343C630.423 40.519 629.84 36.8518 629.285 33.4328C628.785 30.0138 628.424 27.5323 628.202 25.9882C614.542 50.5278 607.712 62.9355 607.712 63.2112C607.712 63.4318 607.767 63.5421 607.878 63.5421C609.156 63.5972 610.849 63.6524 612.959 63.7075C615.069 63.7075 617.596 63.7075 620.539 63.7075Z" stroke="#AC906D" stroke-width="2" mask="url(#path-1-outside-1_131_239)"/>
<path d="M728.154 4.15066C731.264 4.15066 734.429 4.50911 737.65 5.226C740.871 5.94289 744.064 7.10094 747.229 8.70015C750.394 10.2994 752.976 12.643 754.975 15.7312C756.974 18.8193 757.974 22.4589 757.974 26.6499C757.974 30.0689 757.224 33.4328 755.725 36.7415C754.225 40.0502 752.448 42.8351 750.394 45.096C748.173 47.4673 745.785 49.6179 743.231 51.548C740.51 53.5884 738.205 55.1324 736.317 56.1802C734.429 57.228 732.708 58.1379 731.153 58.9099C730.153 59.2408 729.876 59.9025 730.32 60.8951C731.764 65.7479 733.485 70.7661 735.484 75.9498C737.483 81.1334 739.538 85.9311 741.648 90.3427C743.758 94.6992 745.646 98.1733 747.312 100.765C748.256 102.309 749.339 103.688 750.56 104.901C751.782 106.059 752.976 106.831 754.142 107.217C754.475 107.327 754.753 107.438 754.975 107.548C755.253 107.603 755.475 107.686 755.641 107.796C755.919 107.906 756.447 108.017 757.224 108.127C757.724 108.182 758.501 108.21 759.556 108.21C760.667 108.21 761.361 108.21 761.639 108.21C762.416 110.305 762.471 111.849 761.805 112.842C759.195 113.393 755.975 113.669 752.143 113.669C744.758 113.669 738.705 110.085 733.985 102.916C731.597 99.3314 729.043 94.2856 726.322 87.7784C723.601 81.2713 720.714 73.3028 717.659 63.873C717.104 62.3289 714.661 61.5569 710.33 61.5569C706.887 61.5569 704.61 61.6947 703.5 61.9705C702.556 62.191 701.945 62.9906 701.667 64.3693L696.836 90.0118C695.614 95.9124 695.004 100.875 695.004 104.901C695.004 105.783 695.753 106.583 697.252 107.3C698.752 108.017 700.223 108.485 701.667 108.706L703.999 109.037C704.221 109.037 704.332 109.258 704.332 109.699C704.332 110.912 703.999 112.18 703.333 113.504C698.169 113.228 694.143 113.035 691.255 112.925C688.368 112.759 686.619 112.677 686.008 112.677C685.841 112.677 684.231 112.759 681.177 112.925C678.123 113.035 673.625 113.228 667.683 113.504C667.461 113.283 667.35 112.842 667.35 112.18C667.35 110.085 667.739 109.037 668.516 109.037C669.405 109.037 670.626 108.871 672.181 108.541C673.791 108.21 675.291 107.769 676.679 107.217C678.067 106.666 678.9 106.059 679.178 105.397C680.344 102.585 681.788 97.291 683.509 89.5155L697.169 21.0251C697.724 18.2678 698.002 15.5106 698.002 12.7533C698.002 11.4298 696.892 10.4097 694.67 9.69276C692.449 8.97587 690.617 8.61743 689.173 8.61743C688.951 8.61743 688.84 8.23141 688.84 7.45938C688.84 5.86017 689.229 4.75726 690.006 4.15066C694.781 4.48154 700.556 4.64697 707.331 4.64697C710.441 4.64697 713.911 4.56425 717.743 4.39882C721.574 4.23338 725.045 4.15066 728.154 4.15066ZM725.489 10.2718C719.825 10.2718 716.243 10.4372 714.744 10.7681C713.3 11.099 712.44 11.9813 712.162 13.4151L704.166 51.9616V52.2925C704.166 53.9468 706.776 54.774 711.995 54.774C717.049 54.774 721.935 53.809 726.655 51.8789C731.32 49.9488 735.345 46.6952 738.733 42.1182C742.12 37.5411 743.814 32.1093 743.814 25.8227C743.814 15.4554 737.705 10.2718 725.489 10.2718Z" stroke="#AC906D" stroke-width="2" mask="url(#path-1-outside-1_131_239)"/>
<path d="M831.605 2.66174C839.213 2.66174 851.04 5.14328 867.088 10.1064C866.089 16.3929 865.311 21.2457 864.756 24.6647C864.201 28.0837 863.868 30.0689 863.757 30.6204C863.423 32.2747 862.091 33.1019 859.758 33.1019C858.87 33.1019 858.259 32.9365 857.926 32.6056C857.926 30.9513 857.87 29.4623 857.759 28.1388C857.648 26.8154 857.093 24.8853 856.094 22.3486C855.094 19.8119 853.734 17.7164 852.012 16.062C850.291 14.4077 847.598 12.9188 843.933 11.5953C840.268 10.2718 835.881 9.61004 830.772 9.61004C825.053 9.61004 819.417 11.2368 813.864 14.4904C808.311 17.744 803.285 22.1832 798.787 27.808C794.29 33.4328 790.68 39.8848 787.959 47.164C785.294 54.4431 783.961 62.1083 783.961 70.1595C783.961 77.2181 785.266 83.5323 787.876 89.1019C790.486 94.6164 794.262 98.9729 799.204 102.171C804.146 105.315 810.115 106.886 817.112 106.886C825.386 106.886 832.383 105.066 838.102 101.427C840.879 99.7725 843.294 97.7873 845.349 95.4712C846.626 94.0374 847.931 92.3831 849.263 90.5081C850.652 88.6332 851.374 87.6957 851.429 87.6957C851.762 87.6957 852.429 88.2747 853.428 89.4328C854.428 90.5908 854.872 91.3905 854.761 91.8316C849.819 101.261 847.042 106.28 846.431 106.886C845.321 108.099 842.961 109.258 839.352 110.36C835.742 111.463 831.522 112.346 826.691 113.007C821.86 113.669 817.057 114 812.281 114C803.507 114 795.844 111.932 789.292 107.796C782.795 103.605 777.742 98.0906 774.133 91.2526C770.579 84.3594 768.802 76.8873 768.802 68.836C768.802 61.5569 770.44 54.002 773.716 46.1713C776.992 38.3407 781.351 31.1994 786.793 24.7474C792.235 18.2954 798.926 13.0015 806.867 8.86558C814.808 4.72969 823.054 2.66174 831.605 2.66174Z" stroke="#AC906D" stroke-width="2" mask="url(#path-1-outside-1_131_239)"/>
<path d="M921.562 52.6233C936.056 52.6233 943.33 52.1822 943.385 51.2999L947.883 28.3043C949.105 22.4037 949.716 17.3304 949.716 13.0842C949.716 12.257 949.133 11.5126 947.967 10.8508C946.856 10.1891 945.551 9.66519 944.052 9.27917C942.608 8.83801 941.386 8.61743 940.387 8.61743C940.165 8.61743 940.054 8.3417 940.054 7.79025C940.054 6.24618 940.498 5.03299 941.386 4.15066C942.275 4.20581 943.774 4.3161 945.884 4.48154C948.05 4.64697 950.382 4.81241 952.881 4.97784C955.38 5.08813 957.545 5.14328 959.378 5.14328C962.099 5.14328 965.569 4.97784 969.789 4.64697C974.065 4.3161 976.536 4.15066 977.203 4.15066V4.64697C977.203 7.29394 976.814 8.61743 976.036 8.61743C975.481 8.61743 974.426 8.83801 972.871 9.27917C971.317 9.66519 969.817 10.1615 968.373 10.7681C966.93 11.3195 966.097 11.871 965.875 12.4225C964.264 15.9517 962.821 21.0803 961.543 27.808L949.382 90.0118C948.161 95.9124 947.55 100.875 947.55 104.901C947.55 105.783 948.3 106.583 949.799 107.3C951.298 108.017 952.825 108.485 954.38 108.706L956.546 109.037C956.768 109.037 956.879 109.258 956.879 109.699C956.879 110.912 956.546 112.18 955.879 113.504C950.715 113.228 946.689 113.035 943.802 112.925C940.914 112.759 939.165 112.677 938.554 112.677C938.388 112.677 936.777 112.759 933.723 112.925C930.669 113.035 926.171 113.228 920.23 113.504C920.008 113.283 919.897 112.842 919.897 112.18C919.897 110.085 920.285 109.037 921.063 109.037C921.951 109.037 923.173 108.871 924.728 108.541C926.338 108.21 927.837 107.769 929.225 107.217C930.614 106.666 931.447 106.059 931.724 105.397C933.335 101.758 934.778 96.4638 936.056 89.5155L941.386 62.2186V62.0532C941.386 61.5017 940.081 61.1433 937.471 60.9778C934.917 60.8124 928.615 60.7297 918.564 60.7297C902.627 60.7297 894.52 61.3914 894.242 62.7149L888.911 90.0118C887.69 95.9124 887.079 100.875 887.079 104.901C887.079 105.783 887.828 106.583 889.328 107.3C890.827 108.017 892.299 108.485 893.742 108.706L896.075 109.037C896.297 109.037 896.408 109.258 896.408 109.699C896.408 110.912 896.075 112.18 895.408 113.504C890.3 113.228 886.301 113.035 883.414 112.925C880.526 112.759 878.749 112.677 878.083 112.677C877.972 112.677 876.389 112.759 873.335 112.925C870.281 113.035 865.756 113.228 859.758 113.504C859.536 113.283 859.425 112.842 859.425 112.18C859.425 110.085 859.814 109.037 860.591 109.037C861.48 109.037 862.702 108.871 864.256 108.541C865.867 108.21 867.366 107.769 868.754 107.217C870.142 106.666 870.975 106.059 871.253 105.397C872.863 101.758 874.307 96.4638 875.584 89.5155L887.412 28.3043C888.634 22.4037 889.244 17.3304 889.244 13.0842C889.244 12.257 888.661 11.5126 887.495 10.8508C886.385 10.1891 885.08 9.66519 883.58 9.27917C882.137 8.83801 880.915 8.61743 879.916 8.61743C879.693 8.61743 879.582 8.3417 879.582 7.79025C879.582 6.24618 880.027 5.03299 880.915 4.15066C881.804 4.20581 883.303 4.3161 885.413 4.48154C887.579 4.64697 889.911 4.81241 892.41 4.97784C894.908 5.08813 897.074 5.14328 898.907 5.14328C901.572 5.14328 904.987 4.97784 909.152 4.64697C913.316 4.3161 915.787 4.15066 916.565 4.15066V4.64697C916.565 7.29394 916.176 8.61743 915.399 8.61743C914.843 8.61743 913.761 8.83801 912.15 9.27917C910.595 9.66519 909.068 10.1615 907.569 10.7681C906.125 11.3195 905.292 11.871 905.07 12.4225C903.238 16.6686 901.794 21.7971 900.739 27.808L896.574 51.1344V51.2999C896.574 51.8513 898.046 52.2098 900.989 52.3752C903.932 52.5406 910.79 52.6233 921.562 52.6233Z" stroke="#AC906D" stroke-width="2" mask="url(#path-1-outside-1_131_239)"/>
<path d="M1005.19 27.808L993.362 90.0118C992.14 95.9124 991.529 100.875 991.529 104.901C991.529 105.783 992.279 106.583 993.778 107.3C995.277 108.017 996.749 108.485 998.193 108.706L1000.52 109.037C1000.75 109.037 1000.86 109.258 1000.86 109.699C1000.86 110.912 1000.52 112.18 999.858 113.504C994.75 113.228 990.752 113.035 987.864 112.925C984.977 112.759 983.2 112.677 982.533 112.677C982.422 112.677 980.84 112.759 977.786 112.925C974.732 113.035 970.206 113.228 964.209 113.504C963.987 113.283 963.876 112.842 963.876 112.18C963.876 110.085 964.264 109.037 965.042 109.037C965.93 109.037 967.152 108.871 968.707 108.541C970.317 108.21 971.816 107.769 973.204 107.217C974.593 106.666 975.426 106.059 975.703 105.397C977.314 101.758 978.757 96.4638 980.035 89.5155L991.862 28.3043C993.084 22.4037 993.695 17.3304 993.695 13.0842C993.695 12.257 993.112 11.5126 991.946 10.8508C990.835 10.1891 989.53 9.66519 988.031 9.27917C986.587 8.83801 985.365 8.61743 984.366 8.61743C984.144 8.61743 984.033 8.3417 984.033 7.79025C984.033 6.24618 984.477 5.03299 985.365 4.15066C986.254 4.20581 987.753 4.3161 989.863 4.48154C992.029 4.64697 994.361 4.81241 996.86 4.97784C999.359 5.08813 1001.52 5.14328 1003.36 5.14328C1006.02 5.14328 1009.44 4.97784 1013.6 4.64697C1017.77 4.3161 1020.24 4.15066 1021.02 4.15066V4.64697C1021.02 7.29394 1020.63 8.61743 1019.85 8.61743C1019.29 8.61743 1018.21 8.83801 1016.6 9.27917C1015.05 9.66519 1013.52 10.1615 1012.02 10.7681C1010.58 11.3195 1009.74 11.871 1009.52 12.4225C1008.02 15.676 1006.58 20.8045 1005.19 27.808Z" stroke="#AC906D" stroke-width="2" mask="url(#path-1-outside-1_131_239)"/>
<path d="M1051.17 89.5155L1062.66 30.7858C1064.11 23.0103 1064.83 17.6613 1064.83 14.7386C1064.83 14.0217 1064.69 13.4426 1064.41 13.0015C1064.02 12.5052 1062.22 12.0916 1059 11.7607C1055.78 11.4298 1052.22 11.2644 1048.34 11.2644C1044.45 11.2644 1041.34 11.6504 1039.01 12.4225C1036.73 13.1393 1034.79 14.5455 1033.18 16.6411C1031.62 18.7366 1029.9 21.8523 1028.01 25.9882C1027.79 26.5396 1027.23 26.8154 1026.35 26.8154C1024.9 26.8154 1023.79 26.4293 1023.01 25.6573L1030.34 2C1034.51 3.2132 1038.01 3.81979 1040.84 3.81979C1044.06 3.81979 1047.67 3.90251 1051.67 4.06795C1055.67 4.23338 1059.66 4.39882 1063.66 4.56425C1067.72 4.72969 1071.32 4.81241 1074.49 4.81241C1077.77 4.81241 1081.43 4.72969 1085.48 4.56425C1089.59 4.39882 1093.67 4.23338 1097.73 4.06795C1101.84 3.90251 1105.53 3.81979 1108.81 3.81979C1111.31 3.81979 1114.97 3.2132 1119.8 2L1118.14 25.6573C1117.08 26.4293 1115.8 26.8154 1114.3 26.8154C1113.3 26.8154 1112.8 26.5396 1112.8 25.9882C1112.8 20.0325 1111.72 16.0896 1109.56 14.1595C1107.39 12.2294 1103.7 11.2644 1098.48 11.2644C1087.48 11.2644 1081.6 12.0916 1080.82 13.7459C1080.04 15.4003 1079.27 17.6061 1078.49 20.3634C1077.71 23.1206 1076.93 26.4293 1076.16 30.2895L1064.49 90.0118C1063.27 95.9124 1062.66 100.875 1062.66 104.901C1062.66 105.783 1063.41 106.583 1064.91 107.3C1066.41 108.017 1067.88 108.485 1069.33 108.706L1071.66 109.037C1071.88 109.037 1071.99 109.258 1071.99 109.699C1071.99 110.912 1071.66 112.18 1070.99 113.504C1065.88 113.228 1061.88 113.035 1059 112.925C1056.11 112.759 1054.33 112.677 1053.67 112.677C1053.56 112.677 1051.97 112.759 1048.92 112.925C1045.86 113.035 1041.34 113.228 1035.34 113.504C1035.12 113.283 1035.01 112.842 1035.01 112.18C1035.01 110.085 1035.4 109.037 1036.17 109.037C1037.06 109.037 1038.28 108.871 1039.84 108.541C1041.45 108.21 1042.95 107.769 1044.34 107.217C1045.73 106.666 1046.56 106.059 1046.84 105.397C1048.45 101.758 1049.89 96.4638 1051.17 89.5155Z" stroke="#AC906D" stroke-width="2" mask="url(#path-1-outside-1_131_239)"/>
<path d="M1147.29 4.48154C1149.57 4.48154 1152.65 4.42639 1156.53 4.3161C1160.48 4.20581 1165.22 4.04037 1170.78 3.81979C1176.33 3.59921 1181.22 3.43378 1185.44 3.32349C1189.66 3.2132 1193.21 3.15805 1196.1 3.15805C1196.04 3.93008 1195.99 4.86755 1195.93 5.97046C1195.93 7.01822 1195.93 8.23141 1195.93 9.61004C1195.93 10.5475 1195.93 11.7056 1195.93 13.0842C1195.99 14.4077 1196.04 15.9517 1196.1 17.7164C1196.15 19.481 1196.18 21.0251 1196.18 22.3486C1196.24 23.6721 1196.27 24.775 1196.27 25.6573C1195.71 26.2088 1194.71 26.4845 1193.27 26.4845C1191.93 26.4845 1191.27 26.0985 1191.27 25.3264C1190.93 19.1502 1189.49 15.2349 1186.94 13.5805C1184.38 11.9261 1180.33 11.099 1174.78 11.099H1165.78C1157.95 11.099 1153.73 11.8159 1153.12 13.2496C1151.9 16.5583 1150.9 20.2531 1150.12 24.3338L1144.79 53.2851C1144.79 53.9468 1145.46 54.3328 1146.79 54.4431C1148.12 54.5534 1149.51 54.6086 1150.95 54.6086H1158.45C1162.11 54.6086 1165 54.5259 1167.11 54.3604C1169.22 54.195 1170.89 53.7538 1172.11 53.0369C1173.33 52.32 1174.39 51.162 1175.28 49.5628C1176.22 47.9636 1177.33 45.7302 1178.61 42.8626C1178.94 42.0906 1179.72 41.7046 1180.94 41.7046C1182.27 41.7046 1183.1 41.9803 1183.44 42.5318L1177.27 74.2954C1176.55 74.7366 1175.77 74.9572 1174.94 74.9572C1173.44 74.9572 1172.67 74.516 1172.61 73.6337C1172.55 70.8213 1172.33 68.5879 1171.94 66.9335C1171.72 65.8858 1171.53 65.1413 1171.36 64.7002C1171.19 64.259 1170.78 63.7627 1170.11 63.2112C1169.06 62.3289 1163.67 61.8877 1153.95 61.8877C1146.68 61.8877 1142.9 62.384 1142.62 63.3767L1137.79 87.8612C1136.57 93.5963 1135.96 98.3939 1135.96 102.254C1135.96 103.908 1136.4 104.901 1137.29 105.232C1138.24 105.563 1141.18 105.728 1146.12 105.728H1153.62C1163.34 105.728 1170.06 104.791 1173.78 102.916C1175.55 102.033 1177.63 100.076 1180.02 97.0428C1182.41 94.0099 1184.66 90.3978 1186.77 86.2068C1187.1 85.5451 1187.94 85.2142 1189.27 85.2142C1191.21 85.2142 1192.38 85.5451 1192.77 86.2068C1184.99 100.6 1180.44 109.754 1179.11 113.669C1173.28 113.669 1164.14 113.504 1151.7 113.173C1139.32 112.842 1130.91 112.677 1126.46 112.677L1107.97 113.504C1107.86 113.393 1107.81 112.952 1107.81 112.18C1107.81 110.085 1108.08 109.037 1108.64 109.037C1109.47 109.037 1110.72 108.844 1112.39 108.458C1114.05 108.017 1115.64 107.493 1117.14 106.886C1118.64 106.225 1119.52 105.563 1119.8 104.901C1121.36 101.758 1122.8 96.6293 1124.13 89.5155L1136.13 27.9734C1137.57 19.9222 1138.18 14.7937 1137.96 12.5879C1137.9 11.9813 1137.27 11.3747 1136.04 10.7681C1134.82 10.1615 1133.49 9.66519 1132.05 9.27917C1130.6 8.83801 1129.46 8.61743 1128.63 8.61743C1128.41 8.61743 1128.3 8.39685 1128.3 7.95569C1128.3 6.19104 1128.69 4.9227 1129.46 4.15066C1132.02 4.26096 1134.77 4.34367 1137.71 4.39882C1140.71 4.45396 1143.9 4.48154 1147.29 4.48154Z" stroke="#AC906D" stroke-width="2" mask="url(#path-1-outside-1_131_239)"/>
<path d="M1263.07 2.66174C1270.67 2.66174 1282.5 5.14328 1298.55 10.1064C1297.55 16.3929 1296.77 21.2457 1296.22 24.6647C1295.66 28.0837 1295.33 30.0689 1295.22 30.6204C1294.88 32.2747 1293.55 33.1019 1291.22 33.1019C1290.33 33.1019 1289.72 32.9365 1289.39 32.6056C1289.39 30.9513 1289.33 29.4623 1289.22 28.1388C1289.11 26.8154 1288.55 24.8853 1287.55 22.3486C1286.56 19.8119 1285.19 17.7164 1283.47 16.062C1281.75 14.4077 1279.06 12.9188 1275.39 11.5953C1271.73 10.2718 1267.34 9.61004 1262.23 9.61004C1256.51 9.61004 1250.88 11.2368 1245.32 14.4904C1239.77 17.744 1234.75 22.1832 1230.25 27.808C1225.75 33.4328 1222.14 39.8848 1219.42 47.164C1216.76 54.4431 1215.42 62.1083 1215.42 70.1595C1215.42 77.2181 1216.73 83.5323 1219.34 89.1019C1221.95 94.6164 1225.72 98.9729 1230.67 102.171C1235.61 105.315 1241.58 106.886 1248.57 106.886C1256.85 106.886 1263.84 105.066 1269.56 101.427C1272.34 99.7725 1274.76 97.7873 1276.81 95.4712C1278.09 94.0374 1279.39 92.3831 1280.72 90.5081C1282.11 88.6332 1282.83 87.6957 1282.89 87.6957C1283.22 87.6957 1283.89 88.2747 1284.89 89.4328C1285.89 90.5908 1286.33 91.3905 1286.22 91.8316C1281.28 101.261 1278.5 106.28 1277.89 106.886C1276.78 108.099 1274.42 109.258 1270.81 110.36C1267.2 111.463 1262.98 112.346 1258.15 113.007C1253.32 113.669 1248.52 114 1243.74 114C1234.97 114 1227.31 111.932 1220.75 107.796C1214.26 103.605 1209.2 98.0906 1205.59 91.2526C1202.04 84.3594 1200.26 76.8873 1200.26 68.836C1200.26 61.5569 1201.9 54.002 1205.18 46.1713C1208.45 38.3407 1212.81 31.1994 1218.25 24.7474C1223.7 18.2954 1230.39 13.0015 1238.33 8.86558C1246.27 4.72969 1254.52 2.66174 1263.07 2.66174Z" stroke="#AC906D" stroke-width="2" mask="url(#path-1-outside-1_131_239)"/>
<path d="M1334.37 89.5155L1345.86 30.7858C1347.3 23.0103 1348.03 17.6613 1348.03 14.7386C1348.03 14.0217 1347.89 13.4426 1347.61 13.0015C1347.22 12.5052 1345.42 12.0916 1342.2 11.7607C1338.97 11.4298 1335.42 11.2644 1331.53 11.2644C1327.65 11.2644 1324.54 11.6504 1322.21 12.4225C1319.93 13.1393 1317.98 14.5455 1316.37 16.6411C1314.82 18.7366 1313.1 21.8523 1311.21 25.9882C1310.99 26.5396 1310.43 26.8154 1309.54 26.8154C1308.1 26.8154 1306.99 26.4293 1306.21 25.6573L1313.54 2C1317.71 3.2132 1321.21 3.81979 1324.04 3.81979C1327.26 3.81979 1330.87 3.90251 1334.87 4.06795C1338.86 4.23338 1342.86 4.39882 1346.86 4.56425C1350.91 4.72969 1354.52 4.81241 1357.69 4.81241C1360.96 4.81241 1364.63 4.72969 1368.68 4.56425C1372.79 4.39882 1376.87 4.23338 1380.93 4.06795C1385.04 3.90251 1388.73 3.81979 1392.01 3.81979C1394.5 3.81979 1398.17 3.2132 1403 2L1401.33 25.6573C1400.28 26.4293 1399 26.8154 1397.5 26.8154C1396.5 26.8154 1396 26.5396 1396 25.9882C1396 20.0325 1394.92 16.0896 1392.75 14.1595C1390.59 12.2294 1386.9 11.2644 1381.68 11.2644C1370.68 11.2644 1364.8 12.0916 1364.02 13.7459C1363.24 15.4003 1362.46 17.6061 1361.69 20.3634C1360.91 23.1206 1360.13 26.4293 1359.35 30.2895L1347.69 90.0118C1346.47 95.9124 1345.86 100.875 1345.86 104.901C1345.86 105.783 1346.61 106.583 1348.11 107.3C1349.61 108.017 1351.08 108.485 1352.52 108.706L1354.86 109.037C1355.08 109.037 1355.19 109.258 1355.19 109.699C1355.19 110.912 1354.86 112.18 1354.19 113.504C1349.08 113.228 1345.08 113.035 1342.2 112.925C1339.31 112.759 1337.53 112.677 1336.86 112.677C1336.75 112.677 1335.17 112.759 1332.12 112.925C1329.06 113.035 1324.54 113.228 1318.54 113.504C1318.32 113.283 1318.21 112.842 1318.21 112.18C1318.21 110.085 1318.6 109.037 1319.37 109.037C1320.26 109.037 1321.48 108.871 1323.04 108.541C1324.65 108.21 1326.15 107.769 1327.54 107.217C1328.92 106.666 1329.76 106.059 1330.03 105.397C1331.65 101.758 1333.09 96.4638 1334.37 89.5155Z" stroke="#AC906D" stroke-width="2" mask="url(#path-1-outside-1_131_239)"/>
</svg>
